<?xml version="1.0" encoding="utf-8"?>
<!-- Generator: Adobe Illustrator 25.4.1, SVG Export Plug-In . SVG Version: 6.00 Build 0)  -->
<svg version="1.1" id="Layer_9" xmlns="http://www.w3.org/2000/svg" xmlns:xlink="http://www.w3.org/1999/xlink" x="0px" y="0px"
	 viewBox="0 0 285.4 45.2" style="enable-background:new 0 0 285.4 45.2;" xml:space="preserve">
<style type="text/css">
	.st0{fill:#FFFFFF;}
	.st1{fill:url(#SVGID_1_);}
	.st2{fill:url(#SVGID_00000102543645652957151730000015540888322751250839_);}
</style>
<path class="st0" d="M22.9,18.8c6.3,1,12.5,5.4,12.4,11.9c0,4-1.7,7.7-4.8,10.3C19.6,49.6,0.3,44.4,0,29.9h10
	c0.4,3.7,3.4,6.7,7.4,6.6c4.2,0,7.9-1.7,7.9-5.8c0-1.9-1.1-2.9-2.9-3.8c-6.7-2.7-16.6-2.6-20.7-9.3C-0.8,13.1,1.2,7,5.2,3.8
	C8.5,1.1,12.8,0,17.4,0c8.2-0.1,17,5.2,17,13.4H24.2c-1.3-4.6-7.8-6-11.7-3.5c-2,1.3-2.8,3.7-0.9,5.2C14.6,17.5,19.1,18.2,22.9,18.8
	z"/>
<path class="st0" d="M133.6,10.8c10.4-0.3,19.5,9.7,17.3,20.3h-25.6c2.4,6.6,11.1,8,15.2,2.4h9.8c-4.1,12.2-20.4,15.5-29.2,6.6
	C109.8,29,118.3,10.7,133.6,10.8z M141.9,24.9c-3-7.8-13.6-7.8-16.6,0H141.9z"/>
<path class="st0" d="M194.3,0h9v45.2h-9V0z"/>
<linearGradient id="SVGID_1_" gradientUnits="userSpaceOnUse" x1="208.9241" y1="-0.9128" x2="234.4496" y2="43.2987">
	<stop  offset="0" style="stop-color:#FF00B1"/>
	<stop  offset="0.7" style="stop-color:#9600FF"/>
</linearGradient>
<path class="st1" d="M233.4,1.7c-2.8-1.1-5.9-1.7-9.3-1.7h-16.8v45.1h16.8c3.6,0,6.8-0.6,9.6-1.7c8.6-3.3,13.4-11.8,13.3-20.9
	C247.1,13.4,242,5,233.4,1.7z M224.4,36.1h-8.2V9.1c0,0,8.2,0,8.2,0c7.2-0.1,13.1,6.5,13,13.5C237.5,29.7,231.6,36.2,224.4,36.1z"/>
<linearGradient id="SVGID_00000141452946630604724740000010209573933876134557_" gradientUnits="userSpaceOnUse" x1="251.1481" y1="-8.084664e-02" x2="276.9282" y2="44.5717">
	<stop  offset="0" style="stop-color:#FF00B1"/>
	<stop  offset="0.7" style="stop-color:#9600FF"/>
</linearGradient>
<path style="fill:url(#SVGID_00000141452946630604724740000010209573933876134557_);" d="M279.4,21c7.1-5.4,3.3-17.3-4.4-20
	c-1.7-0.7-3.5-1-5.4-1h-18.6v45.1c1.1,0,21.1,0,21.1,0c3.6,0,7-1.3,9.5-3.7C287.2,36,286.6,25,279.4,21z M259.9,9.1h9.4
	c2.4,0,4.4,1.7,4.3,4.2c0.1,2.4-1.9,4.4-4.3,4.3h-9.4V9.1z M271.6,36.1h-11.6v-9.8h11.6c2.4-0.1,4.4,2.6,4.3,5
	C276,33.6,274,36.2,271.6,36.1z"/>
<path class="st0" d="M64.5,12.9v14.6c-0.5,11.9-16.8,11.9-17.2,0c0-1.3,0-15.9,0-16.7h-9v16.7c0,1.8,0.3,3.6,0.8,5.3
	c2.3,7.3,9.1,12.3,16.8,12.3c7.7,0,14.5-5,16.8-12.3c0.5-1.7,0.8-3.5,0.8-5.3c0,0,0-16.7,0-16.7h-9V12.9z"/>
<path class="st0" d="M190.3,28c0-9.5-7.8-17.2-17.5-17.2c-9.7,0-17.5,7.7-17.5,17.2s7.8,17.2,17.5,17.2c3.1,0,6-0.8,8.5-2.2v2.2h9
	V28L190.3,28C190.3,28,190.3,28,190.3,28z M172.7,36.9c-5.1,0-9.1-4-9.1-9c0-4.9,4.1-9,9.1-9c5.1,0,9.1,4,9.1,9
	C181.8,32.9,177.7,36.9,172.7,36.9z"/>
<path class="st0" d="M95.1,10.8c-7.7,0-14.5,5-16.8,12.3c-0.5,1.7-0.8,3.5-0.8,5.3v10v6.7v0h9v-1.3c0-0.3,0-0.6,0-0.9v-4.5h0
	c0-4.3,0-9.3,0-10c0.2-6,4.4-9,8.6-9L95.1,10.8L95.1,10.8z"/>
<path class="st0" d="M114.3,10.8c-7.7,0-14.5,5-16.8,12.3c-0.5,1.7-0.8,3.5-0.8,5.3v10v6.7v0h9v-1.3c0-0.3,0-0.6,0-0.9v-4.5h0
	c0-4.3,0-9.3,0-10c0.2-6,4.4-9,8.6-9L114.3,10.8L114.3,10.8z"/>
</svg>
