<?xml version="1.0" encoding="utf-8"?>
<!-- Generator: Adobe Illustrator 25.2.0, SVG Export Plug-In . SVG Version: 6.00 Build 0)  -->
<svg version="1.1" id="Layer_9" xmlns="http://www.w3.org/2000/svg" xmlns:xlink="http://www.w3.org/1999/xlink" x="0px" y="0px"
	 viewBox="0 0 380.6 58" style="enable-background:new 0 0 380.6 58;" xml:space="preserve">
<style type="text/css">
	.st0{fill:#FFFFFF;}
	.st1{clip-path:url(#SVGID_2_);fill:url(#SVGID_3_);}
	.st2{clip-path:url(#SVGID_5_);fill:url(#SVGID_6_);}
</style>
<path class="st0" d="M32.8,3.9C29.4,1.3,24.9,0,19.2,0S8.9,1.5,5.3,4.5C1.8,7.5-0.2,11.9,0,16.5c-0.1,2.5,0.5,5,1.7,7.3
	c1,1.9,2.5,3.4,4.3,4.5c1.9,1.1,3.8,1.9,5.9,2.5c2.2,0.7,4.3,1.2,6.4,1.7c2,0.4,3.9,1,5.8,1.7c1.7,0.5,3.1,1.5,4.3,2.8
	c1.2,1.5,1.8,3.3,1.7,5.2c0,2.2-1,4.4-2.7,5.8c-2.1,1.7-4.8,2.6-7.5,2.4c-3.2,0-5.5-0.7-7.2-2.2c-0.9-0.8-1.7-1.9-2.1-3.1H0.2
	c0.5,3.5,2.4,6.6,5.3,8.7C9.2,56.6,14.1,58,20,58s10.7-1.7,14.2-5c3.5-3.3,5.3-7.1,5.3-11.2s-1-7.4-3.1-9.8c-2-2.2-4.6-3.9-7.5-4.7
	c-2.9-0.8-5.9-1.6-8.8-2.2c-2.7-0.5-5.2-1.6-7.5-3.1c-2-1.4-3.2-3.7-3.1-6.1c-0.1-2.3,0.8-4.6,2.6-6.1c1.9-1.5,4.3-2.2,6.8-2.1
	c2.4-0.1,4.8,0.7,6.6,2.2c0.8,0.7,1.5,1.6,2,2.6H38C37.4,9,35.5,6,32.8,3.9z"/>
<path class="st0" d="M178,58c-6.5,0-11.8-2.1-15.9-6.2S156,42,156,35.1c0-6.9,2.1-12.4,6.2-16.5s9.5-6.2,16-6.2c6.6,0,11.9,2,15.9,6
	s6.1,9.2,6.1,15.6c0,1.4-0.1,2.9-0.3,4.3h-34.4c0.1,3.3,1.5,6.4,3.8,8.7c2.3,2.2,5.4,3.4,8.6,3.3c5.1,0,8.6-2.1,10.7-6.2h10
	c-1.3,4-3.9,7.6-7.4,10C187.4,56.8,182.7,58.2,178,58z M186.9,23.3c-2.4-2.2-5.5-3.3-8.7-3.2c-3.2-0.1-6.3,1.1-8.6,3.2
	c-2.4,2.3-3.8,5.4-4,8.7h25C190.7,28.7,189.4,25.6,186.9,23.3L186.9,23.3z"/>
<path class="st0" d="M261.4,58V0h9.3v58H261.4z"/>
<path class="st0" d="M104.8,20.9v-8.5h-9.3V58h9.3V34.4c0-4.6,0.9-7.8,2.8-9.6c1.9-1.8,4.6-2.8,8.3-2.8h2.4v-9.6
	C112.2,12.4,107.7,15.2,104.8,20.9z"/>
<path class="st0" d="M76.2,12.4v25.1c0,4-1,7.1-3.1,9.2C71,49,68,50.1,64.9,50c-3.1,0.2-6.1-1-8.2-3.2c-2-2.1-3-5.2-3-9.2V12.4h-9.2
	v26.5c0,6,1.6,10.7,4.9,14.1c3.3,3.4,7.8,5.2,12.5,5c6.6,0,11.4-2.6,14.3-7.7V58h9.3V12.4H76.2z"/>
<path class="st0" d="M242.1,12.4V21c-1.5-2.6-3.6-4.7-6.2-6.2c-2.8-1.6-6.1-2.4-9.3-2.4c-5.7-0.1-11.2,2.1-15.1,6.3
	c-4,4.2-6.1,9.6-6.1,16.3s2,12.2,6.1,16.5c3.9,4.2,9.4,6.6,15.1,6.5c3.3,0.1,6.5-0.8,9.3-2.5c2.6-1.6,4.8-3.9,6.3-6.5v9h9.4V12.4
	H242.1z M238,46c-5.1,5.3-13.5,5.4-18.7,0.3c-0.1-0.1-0.3-0.3-0.4-0.4c-2.7-2.7-4-6.4-4-10.9c0-4.5,1.3-8.1,4-10.7
	c5.3-5.3,13.9-5.2,19.2,0.1c2.7,2.7,4,6.3,4,10.8S240.7,43.3,238,46z"/>
<path class="st0" d="M137.6,20.9v-8.5h-9.3V58h9.3V34.4c0-4.6,0.9-7.8,2.8-9.6c1.9-1.8,4.6-2.8,8.3-2.8h2.3v-9.6
	C144.9,12.4,140.5,15.2,137.6,20.9z"/>
<g>
	<defs>
		<path id="SVGID_1_" d="M299.2,0h-18.5v58h18.5c9.1,0,16.4-2.6,21.9-7.8c5.5-5.1,8.2-12.2,8.2-21.1c0-8.9-2.7-16-8.2-21.3
			C315.7,2.6,308.4,0,299.2,0z M314.4,45c-3.6,3.8-8.6,5.8-15.2,5.8H290v-43h9.2c6.6,0,11.6,1.9,15.2,5.7c3.6,3.8,5.3,9.1,5.3,15.8
			C319.7,35.9,318,41.1,314.4,45z"/>
	</defs>
	<clipPath id="SVGID_2_">
		<use xlink:href="#SVGID_1_"  style="overflow:visible;"/>
	</clipPath>
	<linearGradient id="SVGID_3_" gradientUnits="userSpaceOnUse" x1="291.1897" y1="-10.4602" x2="370.114" y2="68.4641">
		<stop  offset="0" style="stop-color:#FE3CAD"/>
		<stop  offset="0.807" style="stop-color:#8700FF"/>
	</linearGradient>
	<rect x="280.7" class="st1" width="99.8" height="58"/>
</g>
<g>
	<defs>
		<path id="SVGID_4_" d="M377.2,33.2c-2.2-2.7-5.4-4.5-8.9-5c7.3-2.1,11-6.3,11-12.8c0.1-4.2-1.7-8.2-4.8-11
			c-3.2-2.9-7.7-4.3-13.5-4.3h-21.6v58H362c5.6,0,10.2-1.4,13.5-4.3c3.3-2.7,5.2-6.7,5-11C380.6,39.2,379.4,35.9,377.2,33.2z
			 M348.6,7.4l11.5,0c2.6-0.2,5.1,0.7,7.1,2.3c1.8,1.6,2.7,3.9,2.6,6.3c0.1,2.4-0.8,4.7-2.6,6.3c-2,1.6-4.6,2.4-7.1,2.2h-11.5V7.4z
			 M368.6,48.1c-2.1,1.7-4.7,2.6-7.4,2.4h-12.5V32h12.2c2.8-0.1,5.5,0.8,7.6,2.6c1.9,1.7,3,4.2,2.9,6.8
			C371.4,43.9,370.4,46.4,368.6,48.1z"/>
	</defs>
	<clipPath id="SVGID_5_">
		<use xlink:href="#SVGID_4_"  style="overflow:visible;"/>
	</clipPath>
	<linearGradient id="SVGID_6_" gradientUnits="userSpaceOnUse" x1="291.1897" y1="-10.4602" x2="370.114" y2="68.4641">
		<stop  offset="0" style="stop-color:#FE3CAD"/>
		<stop  offset="0.807" style="stop-color:#8700FF"/>
	</linearGradient>
	<rect x="280.7" class="st2" width="99.8" height="58"/>
</g>
</svg>
