<?xml version="1.0" encoding="utf-8"?>
<!-- Generator: Adobe Illustrator 25.2.3, SVG Export Plug-In . SVG Version: 6.00 Build 0)  -->
<svg version="1.1" id="Layer_1" xmlns="http://www.w3.org/2000/svg" xmlns:xlink="http://www.w3.org/1999/xlink" x="0px" y="0px"
	 viewBox="0 0 511.8 119.4" style="enable-background:new 0 0 511.8 119.4;" xml:space="preserve">
<style type="text/css">
	.st0{fill-rule:evenodd;clip-rule:evenodd;fill:#33CC66;}
	.st1{fill:#333333;}
</style>
<polygon class="st0" points="0,0 0,19.4 33.3,19.4 33.3,33.3 0,33.3 0,52.7 33.3,52.7 33.3,85.9 0,66.7 0,89 52.7,119.4 52.7,0 "/>
<polygon class="st0" points="59.7,0 112.3,0 112.3,19.4 79,19.4 79,33.3 112.3,33.3 112.3,85.2 59.7,115.6 59.7,93.2 93,74 93,52.7 
	93,52.7 59.7,52.7 "/>
<path class="st1" d="M150.8,32.9h21.4c11.8,0,17.7,5.7,17.7,13.7c0,6.3-4.1,10.3-9.7,11.5v0.5c6.1,0.3,11.7,5.1,11.7,13
	c0,8.5-6.4,14.8-18.4,14.8h-22.8V32.9H150.8z M170.5,55.3c4.6,0,8.1-2.6,8.1-6.8c0-3.9-2.8-6.5-7.9-6.5h-8.6v13.3H170.5z
	 M171.3,77.2c6.3,0,9.1-2.6,9.1-6.7c0-4.4-3.4-7.6-8.8-7.6h-9.5v14.2L171.3,77.2L171.3,77.2z"/>
<path class="st1" d="M380.9,42.1c-5.5,0-8.6,2.5-8.6,5.8c-0.1,3.7,3.8,5.4,8.5,6.5l4.8,1.1c9.3,2,16,6.6,16,15.3
	c0,9.5-7.7,15.6-20.7,15.6s-21.2-5.8-21.5-17.1h10.9c0.4,5.2,4.6,7.9,10.5,7.9c5.7,0,9.4-2.6,9.5-6.4c0-3.5-3.3-5.1-9.1-6.5
	l-5.8-1.4c-9-2.1-14.6-6.5-14.6-14.2c-0.1-9.5,8.5-15.8,20.2-15.8c11.9,0,19.7,6.4,19.9,15.7h-10.8
	C389.6,44.5,386.3,42.1,380.9,42.1z"/>
<path class="st1" d="M473.6,66.6c0-12.2,7.6-20.4,19.4-20.4c10.6,0,18.8,6.6,18.8,20v3h-27.3l0,0c0,5.9,3.5,9.5,9.1,9.5
	c3.7,0,6.6-1.6,7.7-4.6l10.3,0.7c-1.6,7.3-8.2,12.1-18.2,12.1C481.2,86.9,473.6,79.1,473.6,66.6z M501.4,62.4c0-4.7-3.4-8.1-8.2-8.1
	c-4.9,0-8.4,3.6-8.6,8.1H501.4z"/>
<path class="st1" d="M468,41.4c1.4,0,2.7,0.2,3.6,0.5l2-8c-1.4-0.4-4.5-1-7.9-1c-7.6,0-13.2,4.1-13.2,12.4v0.5h-5.7v8h5.7v32.7h11.1
	V53.8h7.9v-8h-7.9v-0.3C463.6,42.9,464.7,41.4,468,41.4z"/>
<path class="st1" d="M291.9,45.8c-6,0-10.3,2.9-12.1,7.6h-0.5v-7.1h0v-0.5h-10.6v0.5v40.2h11.1l0.1-23.2c0-5.2,3.1-8.2,7.6-8.2
	c4.4,0,7.1,2.9,7.1,7.8v23.6h11.1V60.9C305.7,51.6,300.2,45.8,291.9,45.8z"/>
<path class="st1" d="M340.9,32.9V53h-0.3c-1.5-3.2-4.7-7.1-11.4-7.1c-8.8,0-16.2,6.7-16.2,20.3c0,13.2,7.1,20.3,16.3,20.3
	c6.5,0,9.8-3.7,11.4-7h0.5v7h11V32.9H340.9z M332.7,77.8c-5.5,0-8.4-4.8-8.4-11.7c0-6.8,2.9-11.5,8.4-11.5c5.4,0,8.4,4.5,8.4,11.5
	S338,77.8,332.7,77.8z"/>
<path class="st1" d="M426.4,45.8c-9.6,0-15.9,4.5-17.5,11.7l10.3,0.8c0.8-2.6,3.1-4.5,7.1-4.5c3.8,0,5.9,1.9,5.9,5.1V59
	c0,2.5-2.7,2.9-9.7,3.5c-7.9,0.7-15.1,3.3-15.1,12.1c0,7.8,5.7,11.8,13.3,11.8c5.9,0,9.8-2.5,11.7-6.2h0.3v6.2h10.5V59.1
	C443.4,49.8,435.3,45.8,426.4,45.8z M432.3,71.7c0,4.1-3.5,7.3-8.3,7.3c-3.4,0-5.9-1.6-5.9-4.6c0-3.1,2.6-4.6,6.5-5.1
	c2.4-0.3,6.4-0.9,7.7-1.8L432.3,71.7L432.3,71.7z"/>
<path class="st1" d="M244.6,45.8c-9.6,0-15.9,4.5-17.5,11.7l10.3,0.8c0.8-2.6,3.1-4.5,7.1-4.5c3.8,0,5.9,1.9,5.9,5.1v0.2
	c0,2.5-2.7,2.9-9.7,3.5c-7.9,0.7-15.1,3.3-15.1,12.1c0,7.8,5.7,11.8,13.3,11.8c5.9,0,9.8-2.5,11.7-6.2h0.3v6.2h10.5V59.2
	C261.7,49.8,253.6,45.8,244.6,45.8z M250.6,71.7c0,4.1-3.5,7.3-8.3,7.3c-3.4,0-5.9-1.6-5.9-4.6c0-3.1,2.6-4.6,6.5-5.1
	c2.4-0.3,6.4-0.9,7.7-1.8V71.7z"/>
<path class="st1" d="M220,45.8c-4.5,0-8.2,2.6-9.6,7.6H210v-7.6h-10.8v40.7h11.1V63.8c0-4.9,3.6-8.3,8.5-8.3c1.5,0,3.7,0.3,4.7,0.6
	v-9.9C222.5,46,221.1,45.8,220,45.8z"/>
</svg>
