<svg id="Layer_9" data-name="Layer 9" xmlns="http://www.w3.org/2000/svg" xmlns:xlink="http://www.w3.org/1999/xlink" viewBox="0 0 537.23 402.59"><defs><style>.cls-1{fill:#fff;}.cls-2{fill:url(#linear-gradient);}.cls-3{fill:url(#linear-gradient-2);}.cls-4{fill:url(#linear-gradient-3);}</style><linearGradient id="linear-gradient" x1="529.16" y1="424.86" x2="675.9" y2="639.97" gradientUnits="userSpaceOnUse"><stop offset="0" stop-color="#fabea0"/><stop offset="1" stop-color="#ae6f4e"/></linearGradient><linearGradient id="linear-gradient-2" x1="220.75" y1="70.09" x2="318.16" y2="212.89" xlink:href="#linear-gradient"/><linearGradient id="linear-gradient-3" x1="540.88" y1="442.04" x2="663.34" y2="621.56" xlink:href="#linear-gradient"/></defs><title>surreal</title><path class="cls-1" d="M372.15,775.28a16.52,16.52,0,0,1-16.51,16.51H333.22v-7.34h22.42a9.18,9.18,0,0,0,0-18.35h-7.75a16.51,16.51,0,0,1,0-33h20.59v7.34H347.89a9.18,9.18,0,0,0,0,18.35h7.75a16.51,16.51,0,0,1,16.51,16.51Z" transform="translate(-331.38 -389.19)"/><path class="cls-1" d="M428.4,733.08v36.69a22,22,0,1,1-44,0V733.08h7.34v36.69a14.68,14.68,0,1,0,29.35,0V733.08Z" transform="translate(-331.38 -389.19)"/><path class="cls-1" d="M471.7,771.07l12.95,20.72H476l-12.23-19.57H448v19.57h-7.34V733.08h24.46a19.57,19.57,0,0,1,6.62,38Zm-6.62-6.19a12.23,12.23,0,1,0,0-24.46H448v24.46Z" transform="translate(-331.38 -389.19)"/><path class="cls-1" d="M528,771.07l12.95,20.72h-8.65L520,772.22H504.21v19.57h-7.34V733.08h24.46a19.57,19.57,0,0,1,6.62,38Zm-6.62-6.19a12.23,12.23,0,1,0,0-24.46H504.21v24.46Z" transform="translate(-331.38 -389.19)"/><path class="cls-1" d="M560.46,740.42V755.1h26.09v7.34H560.46v22h33.43v7.34H553.12V733.08h40.77v7.34Z" transform="translate(-331.38 -389.19)"/><path class="cls-1" d="M664.81,791.79h-8l-6.55-15-36.14,15h-8l25.68-58.71h7.34ZM647.32,770.1,635.46,743l-17.09,39.08Z" transform="translate(-331.38 -389.19)"/><path class="cls-1" d="M717.8,784.45v7.34H677V733.08h7.34v51.37Z" transform="translate(-331.38 -389.19)"/><path class="cls-1" d="M812.37,762.44A29.36,29.36,0,0,1,783,791.79H763.45V733.08H783a29.36,29.36,0,0,1,29.36,29.36Zm-7.34,0a22,22,0,0,0-22-22H770.79v44H783a22,22,0,0,0,22-22Z" transform="translate(-331.38 -389.19)"/><path class="cls-1" d="M868.62,775.28a16.52,16.52,0,0,1-16.51,16.51H824.59V733.08h22.62a16.52,16.52,0,0,1,12.36,27.47,16.51,16.51,0,0,1,9,14.73Zm-36.69-16.51h15.28a9.18,9.18,0,0,0,0-18.35H831.93Zm29.35,16.51a9.18,9.18,0,0,0-9.17-9.18H831.93v18.35h20.18a9.18,9.18,0,0,0,9.17-9.17Z" transform="translate(-331.38 -389.19)"/><path class="cls-2" d="M600,389.19,479.18,459V598.46L600,668.22l120.82-69.76V459ZM715.82,595.58,600,662.45,484.18,595.58V461.84L600,395l115.82,66.87Z" transform="translate(-331.38 -389.19)"/><polygon class="cls-3" points="189.87 96.94 345.69 186.9 345.69 181.13 189.87 91.16 189.87 96.94"/><path class="cls-4" d="M600,458.47,575,472.9l125.83,72.65V470.49L600,412.28,499.17,470.49v24.05l155.83,90-55,31.75-75.83-43.78V555.16L600,598.94l25-14.43L499.17,511.86v75.06L600,645.13l100.83-58.21v-24L545,472.9l55-31.75,75.83,43.78v17.32Zm0-23.09L535,472.9l160.83,92.86V584L600,639.36,504.17,584V520.52l110.83,64-15,8.66L519.17,546.5v28.87L600,622l65-37.53L504.17,491.66V473.38L600,418.06l95.83,55.32v63.51L585,472.9l15-8.66,80.83,46.67V482Z" transform="translate(-331.38 -389.19)"/></svg>