<?xml version="1.0" encoding="utf-8"?>
<!-- Generator: Adobe Illustrator 25.4.1, SVG Export Plug-In . SVG Version: 6.00 Build 0)  -->
<svg version="1.1" id="SurrealDB" xmlns="http://www.w3.org/2000/svg" xmlns:xlink="http://www.w3.org/1999/xlink" x="0px" y="0px"
	 viewBox="0 0 4556.1 970.3" style="enable-background:new 0 0 4556.1 970.3;" xml:space="preserve">
<style type="text/css">
	.st0{fill:url(#SVGID_1_);}
	.st1{fill:#FFFFFF;}
	.st2{fill:url(#SVGID_00000129181140107010922320000002411932752771867788_);}
	.st3{fill:url(#SVGID_00000044165541284623351270000001193766782578222255_);}
</style>
<linearGradient id="SVGID_1_" gradientUnits="userSpaceOnUse" x1="209.7748" y1="848.6842" x2="629.927" y2="120.9591" gradientTransform="matrix(1 0 0 -1 0 970)">
	<stop  offset="0" style="stop-color:#FF3CAC"/>
	<stop  offset="0.7" style="stop-color:#8700FF"/>
</linearGradient>
<path class="st0" d="M75.5,286.5v62.9L662,688.1L420,827.6L123.7,656.4V544.6L420,715.8l48.2-28L75.5,460.9v223.2L420,882.5
	l344.4-198.8v-62.9L177.9,282.5L420,143l296.2,171.1V426L420,254.9l-48.2,28l392.6,226.8V286.5L420,87.7L75.5,286.5z M707,637.1
	v28.4L132.9,333.9v-28.1L707,637.1z M419.9,0L0,242.7V728l419.9,242.3l420-242.6v-485L419.9,0z M788.8,551.1L323.2,282.3l97-55.7
	l272.1,157.3v-55.7L420.2,170.9L226.8,282.7l562,325.2v90.6l-368.6,213l-368.7-213V418.8L517.1,688l-96.9,55.7L148,586.4v55.7
	L419.8,799L613,687.2L51.1,362.4v-90.7l369-213l368.6,213L788.8,551.1L788.8,551.1z"/>
<g>
	<path class="st1" d="M1433.5,439.9c75,11.9,148.7,64.2,147.5,141.6c0,47.6-20.2,91.6-57.1,122.5c-129.7,102.4-359.3,40.5-362.9-132
		h119c4.8,44,40.5,79.7,88,78.5c50,0,94-20.2,94-69c0-22.6-13.1-34.5-34.5-45.2c-79.7-32.1-197.5-30.9-246.3-110.6
		c-29.7-53.5-5.9-126.1,41.6-164.2c39.3-32.1,90.4-45.2,145.2-45.2c97.6-1.2,202.3,61.9,202.3,159.4h-121.4
		c-15.5-54.7-92.8-71.4-139.2-41.6c-23.8,15.5-33.3,44-10.7,61.9C1334.7,424.5,1388.3,432.8,1433.5,439.9z"/>
	<path class="st1" d="M2750.6,344.8c123.7-3.6,232,115.4,205.8,241.5h-304.6c28.6,78.5,132.1,95.2,180.8,28.6h116.6
		c-48.8,145.2-242.7,184.4-347.4,78.5C2467.4,561.3,2568.5,343.6,2750.6,344.8z M2849.3,512.5c-35.7-92.8-161.8-92.8-197.5,0H2849.3
		z"/>
	<path class="st1" d="M3472.8,216.3h107.1V754h-107.1V216.3z"/>
	
		<linearGradient id="SVGID_00000054265758358212726310000013266622527950350489_" gradientUnits="userSpaceOnUse" x1="3647.2141" y1="372.6462" x2="3950.8201" y2="898.5076" gradientTransform="matrix(1 0 0 1 0 -167.7282)">
		<stop  offset="0" style="stop-color:#EA39AC"/>
		<stop  offset="0.7" style="stop-color:#862FF4"/>
	</linearGradient>
	<path style="fill:url(#SVGID_00000054265758358212726310000013266622527950350489_);" d="M3938,236.5
		c-33.3-13.1-70.2-20.2-110.6-20.2h-199.9v536.6h199.9c42.8,0,80.9-7.1,114.2-20.2c102.3-39.3,159.4-140.4,158.2-248.7
		C4101,375.7,4040.3,275.7,3938,236.5z M3830.9,645.8h-97.6V324.5h97.6c85.7-1.2,155.9,77.3,154.7,160.6
		C3986.7,569.6,3916.5,647,3830.9,645.8z"/>
	
		<linearGradient id="SVGID_00000121986439737349416470000009000764956663606205_" gradientUnits="userSpaceOnUse" x1="4149.6807" y1="382.5539" x2="4456.1855" y2="913.4374" gradientTransform="matrix(1 0 0 1 0 -167.7282)">
		<stop  offset="0" style="stop-color:#EA39AC"/>
		<stop  offset="0.7" style="stop-color:#862FF4"/>
	</linearGradient>
	<path style="fill:url(#SVGID_00000121986439737349416470000009000764956663606205_);" d="M4485.2,466.1
		c84.5-64.2,39.3-205.8-52.4-238c-20.2-8.3-41.6-11.9-64.2-11.9h-221.3v536.6c13.1,0,251,0,251,0c42.8,0,83.3-15.5,113-44
		C4578.1,644.6,4570.9,513.7,4485.2,466.1z M4253.2,324.5H4365c28.6,0,52.3,20.2,51.2,50c1.2,28.6-22.6,52.4-51.2,51.2h-111.8V324.5
		z M4392.4,645.8h-138V529.2h138c28.6-1.2,52.4,30.9,51.2,59.5C4444.8,616,4421,647,4392.4,645.8z"/>
	<path class="st1" d="M1928.4,369.7v173.7c-5.9,141.6-199.9,141.6-204.6,0c0-15.5,0-189.2,0-198.7h-107.1v198.7
		c0,21.4,3.6,42.8,9.5,63.1c27.4,86.9,108.3,146.3,199.9,146.3s172.5-59.5,199.9-146.3c5.9-20.2,9.5-41.6,9.5-63.1V344.8h-107.1
		L1928.4,369.7L1928.4,369.7z"/>
	<path class="st1" d="M3425.2,549.4c0-113-92.8-204.6-208.2-204.6s-208.2,91.6-208.2,204.6S3101.5,754,3217,754
		c36.9,0,71.4-9.5,101.1-26.2V754h107.1L3425.2,549.4L3425.2,549.4L3425.2,549.4z M3215.8,655.3c-60.7,0-108.3-47.6-108.3-107.1
		c0-58.3,48.8-107.1,108.3-107.1c60.7,0,108.3,47.6,108.3,107.1S3275.2,655.3,3215.8,655.3z"/>
	<path class="st1" d="M2292.5,344.8c-91.6,0-172.5,59.5-199.9,146.3c-5.9,20.2-9.5,41.6-9.5,63.1v119v79.7l0,0h107.1v-15.5
		c0-3.6,0-7.1,0-10.7v-53.5l0,0c0-51.2,0-110.6,0-119c2.4-71.4,52.4-107.1,102.3-107.1L2292.5,344.8L2292.5,344.8z"/>
	<path class="st1" d="M2520.9,344.8c-91.6,0-172.5,59.5-199.9,146.3c-5.9,20.2-9.5,41.6-9.5,63.1v119v79.7l0,0h107.1v-15.5
		c0-3.6,0-7.1,0-10.7v-53.5l0,0c0-51.2,0-110.6,0-119c2.4-71.4,52.3-107.1,102.3-107.1L2520.9,344.8L2520.9,344.8z"/>
</g>
</svg>
