<?xml version="1.0" encoding="utf-8"?>
<!-- Generator: Adobe Illustrator 25.4.1, SVG Export Plug-In . SVG Version: 6.00 Build 0)  -->
<svg version="1.1" id="SurrealDB" xmlns="http://www.w3.org/2000/svg" xmlns:xlink="http://www.w3.org/1999/xlink" x="0px" y="0px"
	 viewBox="0 0 3459.6 537.8" style="enable-background:new 0 0 3459.6 537.8;" xml:space="preserve">
<style type="text/css">
	.st0{fill:#FFFFFF;}
	.st1{fill:url(#SVGID_1_);}
	.st2{fill:url(#SVGID_00000075884022287961130390000008314751731164183198_);}
</style>
<path class="st0" d="M272.5,223.6c75,11.9,148.7,64.2,147.5,141.6c0,47.6-20.2,91.6-57.1,122.5C233.2,590.1,3.6,528.2,0,355.7h119
	c4.8,44,40.5,79.7,88,78.5c50,0,94-20.2,94-69c0-22.6-13.1-34.5-34.5-45.2C186.8,287.9,69,289.1,20.2,209.4
	C-9.5,155.9,14.3,83.3,61.8,45.2C101.1,13.1,152.2,0,207,0c97.6-1.2,202.3,61.9,202.3,159.4H287.9c-15.5-54.7-92.8-71.4-139.2-41.6
	c-23.8,15.5-33.3,44-10.7,61.9C173.7,208.2,227.3,216.5,272.5,223.6z"/>
<path class="st0" d="M1589.6,128.5c123.7-3.6,232,115.4,205.8,241.5h-304.6c28.6,78.5,132.1,95.2,180.8,28.6h116.6
	c-48.8,145.2-242.7,184.4-347.4,78.5C1306.4,345,1407.5,127.3,1589.6,128.5z M1688.3,296.2c-35.7-92.8-161.8-92.8-197.5,0H1688.3z"
	/>
<path class="st0" d="M2311.8,0h107.1v537.7h-107.1V0z"/>
<path class="st0" d="M767.4,153.4v173.7c-5.9,141.6-199.9,141.6-204.6,0c0-15.5,0-189.2,0-198.7H455.7v198.7
	c0,21.4,3.6,42.8,9.5,63.1c27.4,86.9,108.3,146.3,199.9,146.3S837.6,477,865,390.2c5.9-20.2,9.5-41.6,9.5-63.1V128.5H767.4
	L767.4,153.4L767.4,153.4z"/>
<path class="st0" d="M2264.2,333.1c0-113-92.8-204.6-208.2-204.6s-208.2,91.6-208.2,204.6s92.7,204.6,208.2,204.6
	c36.9,0,71.4-9.5,101.1-26.2v26.2h107.1L2264.2,333.1L2264.2,333.1L2264.2,333.1z M2054.8,439c-60.7,0-108.3-47.6-108.3-107.1
	c0-58.3,48.8-107.1,108.3-107.1c60.7,0,108.3,47.6,108.3,107.1S2114.2,439,2054.8,439z"/>
<path class="st0" d="M1131.5,128.5c-91.6,0-172.5,59.5-199.9,146.3c-5.9,20.2-9.5,41.6-9.5,63.1v198.7l0,0h107.1
	c0,0,0-190.3,0-198.7c2.4-71.4,52.4-107.1,102.3-107.1L1131.5,128.5L1131.5,128.5z"/>
<path class="st0" d="M1359.9,128.5c-91.6,0-172.5,59.5-199.9,146.3c-5.9,20.2-9.5,41.6-9.5,63.1v198.7l0,0h107.1
	c0,0,0-190.3,0-198.7c2.4-71.4,52.3-107.1,102.3-107.1L1359.9,128.5L1359.9,128.5z"/>
<g>
	
		<linearGradient id="SVGID_1_" gradientUnits="userSpaceOnUse" x1="2994.9114" y1="505.3495" x2="3329.4658" y2="-74.116" gradientTransform="matrix(1 0 0 -1 0 537.8336)">
		<stop  offset="0" style="stop-color:#FF00A0"/>
		<stop  offset="1" style="stop-color:#9600FF"/>
	</linearGradient>
	<path class="st1" d="M3157.9,429.8c0-135.1,0-294.5,0-429.6h-107.1c0,85.6,0,459.1,0,536.6c69.2,0,314.2,0,408.8,0v-107
		C3459.6,429.8,3238.3,429.8,3157.9,429.8z"/>
	
		<linearGradient id="SVGID_00000157993969808186680220000017299514228244896937_" gradientUnits="userSpaceOnUse" x1="2599.8867" y1="501.8019" x2="2898.6799" y2="-15.7226" gradientTransform="matrix(1 0 0 -1 0 537.8336)">
		<stop  offset="0" style="stop-color:#FF00A0"/>
		<stop  offset="1" style="stop-color:#9600FF"/>
	</linearGradient>
	<path style="fill:url(#SVGID_00000157993969808186680220000017299514228244896937_);" d="M2734.4,0
		c-148.5,0-268.9,120.4-268.9,268.9s120.4,268.9,268.9,268.9c55.1,0,106.3-16.6,149-45l44.1,44.1l75.7-75.7l-44.3-44.3
		c28-42.4,44.3-93.3,44.3-147.9C3003.2,120.4,2882.8,0,2734.4,0z M2879.6,337.5l-37-37l-75.7,75.7l37.3,37.3
		c-21.1,10.2-44.8,16-69.9,16c-88.7,0-160.7-71.9-160.7-160.7s71.9-160.7,160.7-160.7c88.7,0,160.7,71.9,160.7,160.7
		C2895,293.4,2889.5,316.7,2879.6,337.5z"/>
</g>
</svg>
