<?xml version="1.0" encoding="utf-8"?>
<!-- Generator: Adobe Illustrator 25.4.1, SVG Export Plug-In . SVG Version: 6.00 Build 0)  -->
<svg version="1.1" id="SurrealDB" xmlns="http://www.w3.org/2000/svg" xmlns:xlink="http://www.w3.org/1999/xlink" x="0px" y="0px"
	 viewBox="0 0 3481.8 537.8" style="enable-background:new 0 0 3481.8 537.8;" xml:space="preserve">
<style type="text/css">
	.st0{fill:url(#QL_00000168822812185964823070000014991565990955131783_);}
	.st1{fill:#FFFFFF;}
</style>
<linearGradient id="QL_00000120547483570192097710000005675654501379886732_" gradientUnits="userSpaceOnUse" x1="2742.3896" y1="572.7306" x2="3174.4624" y2="-175.6413" gradientTransform="matrix(1 0 0 -1 0 539)">
	<stop  offset="0" style="stop-color:#FF00A0"/>
	<stop  offset="1" style="stop-color:#9600FF"/>
</linearGradient>
<path id="QL" style="fill:url(#QL_00000120547483570192097710000005675654501379886732_);" d="M2756.1,0
	c-148.5,0-268.9,120.4-268.9,268.9s120.4,268.9,268.9,268.9c55.1,0,106.3-16.6,149-45l44.1,44.1l75.7-75.7l-44.3-44.3
	c28-42.4,44.3-93.3,44.3-147.9C3025,120.4,2904.6,0,2756.1,0z M2901.4,337.6l-37-37l-75.7,75.7l37.3,37.3
	c-21.1,10.2-44.8,16-69.9,16c-88.7,0-160.7-71.9-160.7-160.7s71.9-160.7,160.7-160.7c88.7,0,160.7,71.9,160.7,160.7
	C2916.8,293.5,2911.3,316.7,2901.4,337.6z M3180.1,430.2V0.6H3073v536.6h408.8v-107C3481.8,430.2,3260.5,430.2,3180.1,430.2z"/>
<g id="Surreal">
	<path id="l" class="st1" d="M2332.2,0.6v536.6h107.1V0.6H2332.2z"/>
	<path id="a" class="st1" d="M2076.5,129c-115.1,0-207.7,91.4-207.7,204.1s92.5,204.1,207.7,204.1c36.8,0,71.2-9.5,100.9-26.1v26.1
		h106.8V333.1C2284.2,220.4,2191.6,129,2076.5,129z M2075.3,438.7c-60.6,0-108-47.5-108-106.8c0-58.2,48.7-106.8,108-106.8
		c60.6,0,108,47.5,108,106.8S2134.6,438.7,2075.3,438.7z"/>
	<path id="e" class="st1" d="M1611.3,129.1c123.5-3.6,231.7,115.3,205.5,241.2h-304.2c28.6,78.4,131.9,95.1,180.6,28.6h116.5
		c-48.7,145-242.4,184.2-347,78.4C1328.5,345.3,1429.4,127.9,1611.3,129.1z M1709.9,296.5c-35.7-92.7-161.6-92.7-197.3,0H1709.9z"/>
	<path id="r" class="st1" d="M1377.1,129.1c-91.6,0-172.5,59.5-199.9,146.3c-5.9,20.2-9.5,41.6-9.5,63.1v198.7h107.1
		c0,0,0-190.3,0-198.7c2.4-71.4,52.3-107.1,102.3-107.1L1377.1,129.1z"/>
	<path id="r_00000093863150956384291220000002169458381189141395_" class="st1" d="M1143.7,129.1c-91.6,0-172.5,59.5-199.9,146.3
		c-5.9,20.2-9.5,41.6-9.5,63.1v198.7h107.1c0,0,0-190.3,0-198.7c2.4-71.4,52.4-107.1,102.3-107.1L1143.7,129.1z"/>
	<path id="u" class="st1" d="M779.2,129.1v198.6c-5.9,141.6-199.9,141.6-204.6,0V129H467.5v198.7c0,21.4,3.6,42.8,9.5,63.1
		c27.4,86.9,108.3,146.3,199.9,146.3s172.5-59.5,199.9-146.3c5.9-20.2,9.5-41.6,9.5-63.1V129.1H779.2z"/>
	<path id="S" class="st1" d="M272.1,223.9c-45.1-7.1-98.7-15.4-134.3-43.8c-22.6-17.9-13.1-46.3,10.7-61.8
		c46.3-29.8,123.5-13.1,139,41.5h121.2c0-97.4-104.6-160.4-202-159.2c-54.7,0-105.8,13.1-145,45.1c-47.4,38-71.2,110.5-41.5,164
		c48.7,79.6,166.4,78.4,246,110.4c21.4,10.7,34.5,22.6,34.5,45.1c0,48.7-43.9,68.9-93.9,68.9c-47.4,1.2-83.1-34.5-87.9-78.4H0
		C3.6,528,232.9,589.8,362.4,487.5c36.8-30.9,57-74.8,57-122.3C420.6,288,347,235.8,272.1,223.9z"/>
</g>
</svg>
