<?xml version="1.0" encoding="utf-8"?>
<!-- Generator: Adobe Illustrator 26.3.1, SVG Export Plug-In . SVG Version: 6.00 Build 0)  -->
<svg version="1.1" id="SurrealDB" xmlns="http://www.w3.org/2000/svg" xmlns:xlink="http://www.w3.org/1999/xlink" x="0px" y="0px"
	 viewBox="0 0 3458.5 545.3" style="enable-background:new 0 0 3458.5 545.3;" xml:space="preserve">
<style type="text/css">
	.st0{fill:#FFFFFF;}
	.st1{fill:url(#SVGID_1_);}
</style>
<path id="l_00000025403636360595826800000011768100850424527237_" class="st0" d="M2337.1,4.6v536.6h107.1V4.6H2337.1z"/>
<path class="st0" d="M2289.1,335.3c0-115.9-94-209.9-209.9-209.9s-209.9,94-209.9,209.9s94,209.9,209.9,209.9
	c37.3,0,72.4-9.8,102.8-26.9v22.8h107.1L2289.1,335.3C2289.1,335.4,2289.1,335.4,2289.1,335.3z M2079.2,438.1
	c-56.8,0-102.8-46-102.8-102.8s46-102.8,102.8-102.8s102.8,46,102.8,102.8S2136,438.1,2079.2,438.1z"/>
<path class="st0" d="M1611.4,438.1c-43.3,0-80.4-26.8-95.5-64.7h301.9c2.3-12.3,3.4-25.1,3.4-38c0-115.9-94-209.9-209.9-209.9
	s-209.9,94-209.9,209.9s94,209.9,209.9,209.9c92.3,0,170.7-59.6,198.8-142.3h-121.3C1670,424.5,1642.3,438.1,1611.4,438.1z
	 M1611.4,232.6c43.3,0,80.4,26.8,95.5,64.7h-191C1531,259.4,1568.1,232.6,1611.4,232.6z"/>
<path class="st0" d="M1167.4,335.2v205.7h106.9V335.2c0-56.8,46.1-102.9,102.9-102.9v-107C1261.3,125.3,1167.4,219.3,1167.4,335.2z"
	/>
<path class="st0" d="M933.5,335.2v205.7h106.9V335.2c0-56.8,46.1-102.9,102.9-102.9v-107C1027.4,125.3,933.5,219.3,933.5,335.2z"/>
<path class="st0" d="M778.6,129.5v206.1c-5.9,141.6-199.9,141.6-204.6,0V221.9v-92.5H466.9v92.5v113.6c0,21.4,3.6,42.8,9.5,63.1
	c27.4,86.9,108.3,146.3,199.9,146.3s172.5-59.4,199.9-146.2c5.9-20.2,9.5-41.6,9.5-63.1V221.9v-92.5L778.6,129.5L778.6,129.5z"/>
<path id="S_00000169540344908778767970000011130257505604909976_" class="st0" d="M271.9,226.9c-45.1-7.2-98.6-15.6-134.2-44.5
	c-22.6-18.2-13.1-47,10.7-62.8c46.3-30.3,123.4-13.3,138.9,42.1h121.1C408.4,62.8,303.9-1.2,206.5,0C151.8,0,100.8,13.3,61.6,45.8
	C14.2,84.4-9.5,158,20.1,212.4c48.7,80.8,166.3,79.6,245.8,112.1c21.4,10.9,34.5,23,34.5,45.8c0,49.5-43.9,70-93.8,70
	c-47.4,1.2-83-35-87.8-79.6H0c3.6,175,232.7,237.8,362.1,133.9c36.8-31.4,57-76,57-124.2C420.2,292,346.7,238.9,271.9,226.9z"/>
<path class="st0" d="M2289.1,335.3c0-115.9-94-209.9-209.9-209.9s-209.9,94-209.9,209.9s94,209.9,209.9,209.9
	c37.3,0,72.4-9.8,102.8-26.9v22.8h107.1L2289.1,335.3C2289.1,335.4,2289.1,335.4,2289.1,335.3z M2079.2,438.1
	c-56.8,0-102.8-46-102.8-102.8s46-102.8,102.8-102.8s102.8,46,102.8,102.8S2136,438.1,2079.2,438.1z"/>
<linearGradient id="SVGID_1_" gradientUnits="userSpaceOnUse" x1="2735.5134" y1="-25.2816" x2="3161.71" y2="712.9123">
	<stop  offset="0" style="stop-color:#FF00A0"/>
	<stop  offset="1" style="stop-color:#9600FF"/>
</linearGradient>
<path class="st1" d="M3192.6,434.5V5h-107.1v429.5v107.1h107.1h265.9V434.5H3192.6z M2764.8,0c-150.6,0-272.6,122.1-272.6,272.6
	s122.1,272.6,272.6,272.6c56.9,0,109.7-17.4,153.4-47.2l43.5,43.5l75.7-75.7l-44.2-44.2c28-42.8,44.2-94,44.2-148.9
	C3037.5,122.1,2915.4,0,2764.8,0z M2902.6,330.9l-25.6-25.6l-75.7,75.7l27,27c-19.3,9-40.7,14.1-63.4,14.1
	c-82.6,0-149.5-66.9-149.5-149.5s66.9-149.5,149.5-149.5c82.6,0,149.5,66.9,149.5,149.5C2914.3,293.3,2910.1,313,2902.6,330.9z"/>
</svg>
