<?xml version="1.0" encoding="utf-8"?>
<!-- Generator: Adobe Illustrator 25.4.1, SVG Export Plug-In . SVG Version: 6.00 Build 0)  -->
<svg version="1.1" id="SurrealDB" xmlns="http://www.w3.org/2000/svg" xmlns:xlink="http://www.w3.org/1999/xlink" x="0px" y="0px"
	 viewBox="0 0 3416.4 536.8" style="enable-background:new 0 0 3416.4 536.8;" xml:space="preserve">
<style type="text/css">
	.st0{fill:url(#DB_00000094600094678445388180000014034992058122404252_);}
	.st1{fill:#FFFFFF;}
</style>
<linearGradient id="DB_00000183234248764966651240000015440123713616752312_" gradientUnits="userSpaceOnUse" x1="2684.8142" y1="-1077.9349" x2="3121.3518" y2="-321.8302" gradientTransform="matrix(1 0 0 1 0 964)">
	<stop  offset="0" style="stop-color:#FF00A0"/>
	<stop  offset="1" style="stop-color:#9600FF"/>
</linearGradient>
<path id="DB" style="fill:url(#DB_00000183234248764966651240000015440123713616752312_);" d="M3345.5,249.9
	c84.5-64.2,39.3-205.8-52.4-238C3272.9,3.6,3251.5,0,3228.9,0h-221.3v536.6c13.1,0,251,0,251,0c42.8,0,83.3-15.5,113-44
	C3438.4,428.4,3431.2,297.5,3345.5,249.9z M3114.7,108.3h110.6c28.6,0,52.3,20.2,51.2,50c1.2,28.6-22.6,52.4-51.2,51.2h-110.6V108.3
	z M3252.7,429.6h-138V313h138c28.6-1.2,52.4,30.9,51.2,59.5C3305.1,399.8,3281.3,430.8,3252.7,429.6z M2797.8,20.3
	c-33.3-13.1-70.2-20.2-110.6-20.2h-199.9v536.6h199.9c42.8,0,80.9-7.1,114.2-20.2c102.3-39.3,159.4-140.4,158.2-248.7
	C2960.8,159.5,2900.1,59.5,2797.8,20.3z M2845.4,268.9c1.1,84.5-69.1,161.9-154.7,160.7h-97.6V108.3h97.6
	C2776.4,107.1,2846.6,185.6,2845.4,268.9z"/>
<g id="Surreal">
	<path id="l" class="st1" d="M2332.2,0.1v536.6h107.1V0.1H2332.2z"/>
	<path id="a" class="st1" d="M2076.5,128.5c-115.1,0-207.7,91.4-207.7,204.1s92.5,204.1,207.7,204.1c36.8,0,71.2-9.5,100.9-26.1
		v26.1h106.8V332.6C2284.2,219.9,2191.6,128.5,2076.5,128.5z M2075.3,438.2c-60.6,0-108-47.5-108-106.8c0-58.2,48.7-106.8,108-106.8
		c60.6,0,108,47.5,108,106.8S2134.6,438.2,2075.3,438.2z"/>
	<path id="e" class="st1" d="M1611.3,128.6c123.5-3.6,231.7,115.3,205.5,241.2h-304.2c28.6,78.4,131.9,95.1,180.6,28.6h116.5
		c-48.7,145-242.4,184.2-347,78.4C1328.5,344.8,1429.4,127.4,1611.3,128.6z M1709.9,296c-35.7-92.7-161.6-92.7-197.3,0H1709.9z"/>
	<path id="r" class="st1" d="M1377.1,128.6c-91.6,0-172.5,59.5-199.9,146.3c-5.9,20.2-9.5,41.6-9.5,63.1v198.7h107.1
		c0,0,0-190.3,0-198.7c2.4-71.4,52.3-107.1,102.3-107.1L1377.1,128.6z"/>
	<path id="r_00000093863150956384291220000002169458381189141395_" class="st1" d="M1143.7,128.6c-91.6,0-172.5,59.5-199.9,146.3
		c-5.9,20.2-9.5,41.6-9.5,63.1v198.7h107.1c0,0,0-190.3,0-198.7c2.4-71.4,52.4-107.1,102.3-107.1L1143.7,128.6z"/>
	<path id="u" class="st1" d="M779.2,128.6v198.6c-5.9,141.6-199.9,141.6-204.6,0V128.5H467.5v198.7c0,21.4,3.6,42.8,9.5,63.1
		c27.4,86.9,108.3,146.3,199.9,146.3s172.5-59.5,199.9-146.3c5.9-20.2,9.5-41.6,9.5-63.1V128.6H779.2z"/>
	<path id="S" class="st1" d="M272.1,223.4c-45.1-7.1-98.7-15.4-134.3-43.8c-22.6-17.9-13.1-46.3,10.7-61.8
		c46.3-29.8,123.5-13.1,139,41.5h121.2c0-97.4-104.6-160.4-202-159.2c-54.7,0-105.8,13.1-145,45.1c-47.4,38-71.2,110.5-41.5,164
		c48.7,79.6,166.4,78.4,246,110.4c21.4,10.7,34.5,22.6,34.5,45.1c0,48.7-43.9,68.9-93.9,68.9c-47.4,1.2-83.1-34.5-87.9-78.4H0
		C3.6,527.5,232.9,589.3,362.4,487c36.8-30.9,57-74.8,57-122.3C420.6,287.5,347,235.3,272.1,223.4z"/>
</g>
</svg>
