<?xml version="1.0" encoding="utf-8"?>
<!-- Generator: Adobe Illustrator 25.4.1, SVG Export Plug-In . SVG Version: 6.00 Build 0)  -->
<svg version="1.1" id="Powered_by_SurrealDB" xmlns="http://www.w3.org/2000/svg" xmlns:xlink="http://www.w3.org/1999/xlink"
	 x="0px" y="0px" viewBox="0 0 736.6 207.6" style="enable-background:new 0 0 736.6 207.6;" xml:space="preserve">
<style type="text/css">
	.st0{fill:url(#DB_00000008108257101185797440000001783830608351248561_);}
	.st1{fill:#FFFFFF;}
	.st2{fill:url(#Icon_00000178187475689024269090000004637257718129680023_);}
	.st3{fill:#6A7389;}
</style>
<g id="SurrealDB">
	
		<linearGradient id="DB_00000150817408688516349410000010231984546529609864_" gradientUnits="userSpaceOnUse" x1="618.278" y1="-897.493" x2="688.8439" y2="-775.2693" gradientTransform="matrix(1 0 0 1 0 964)">
		<stop  offset="0" style="stop-color:#FF00A0"/>
		<stop  offset="1" style="stop-color:#9600FF"/>
	</linearGradient>
	<path id="DB" style="fill:url(#DB_00000150817408688516349410000010231984546529609864_);" d="M725.1,125.3
		c13.7-10.4,6.4-33.3-8.5-38.5c-3.3-1.3-6.7-1.9-10.4-1.9h-35.8v86.7c2.1,0,40.6,0,40.6,0c6.9,0,13.5-2.5,18.3-7.1
		C740.1,154.2,738.9,133,725.1,125.3z M687.8,102.4h17.9c4.6,0,8.5,3.3,8.3,8.1c0.2,4.6-3.7,8.5-8.3,8.3h-17.9V102.4z M710.1,154.4
		h-22.3v-18.8h22.3c4.6-0.2,8.5,5,8.3,9.6C718.5,149.6,714.7,154.6,710.1,154.4z M636.5,88.2c-5.4-2.1-11.3-3.3-17.9-3.3h-32.3v86.7
		h32.3c6.9,0,13.1-1.1,18.5-3.3c16.5-6.4,25.8-22.7,25.6-40.2C662.9,110.7,653.1,94.5,636.5,88.2z M644.2,128.4
		c0.2,13.7-11.2,26.2-25,26h-15.8v-51.9h15.8C633.1,102.2,644.4,114.9,644.2,128.4z"/>
	<g id="Surreal">
		<path id="l" class="st1" d="M561.3,84.9v86.7h17.3V84.9H561.3z"/>
		<path id="a" class="st1" d="M519.9,105.7c-18.6,0-33.6,14.8-33.6,33s15,33,33.6,33c5.9,0,11.5-1.5,16.3-4.2v4.2h17.3v-33
			C553.5,120.5,538.6,105.7,519.9,105.7z M519.8,155.8c-9.8,0-17.5-7.7-17.5-17.3c0-9.4,7.9-17.3,17.5-17.3
			c9.8,0,17.5,7.7,17.5,17.3C537.2,148.1,529.3,155.8,519.8,155.8z"/>
		<path id="e" class="st1" d="M444.7,105.7c20-0.6,37.5,18.6,33.2,39h-49.2c4.6,12.7,21.3,15.4,29.2,4.6h18.8
			c-7.9,23.4-39.2,29.8-56.1,12.7C399,140.7,415.3,105.5,444.7,105.7z M460.7,132.8c-5.8-15-26.1-15-31.9,0H460.7z"/>
		<path id="r" class="st1" d="M406.9,105.7c-14.8,0-27.9,9.6-32.3,23.6c-1,3.3-1.5,6.7-1.5,10.2v32.1h17.3c0,0,0-30.8,0-32.1
			c0.4-11.5,8.5-17.3,16.5-17.3L406.9,105.7z"/>
		<path id="r_00000093863150956384291220000002169458381189141395_" class="st1" d="M369.2,105.7c-14.8,0-27.9,9.6-32.3,23.6
			c-1,3.3-1.5,6.7-1.5,10.2v32.1h17.3c0,0,0-30.8,0-32.1c0.4-11.5,8.5-17.3,16.5-17.3L369.2,105.7z"/>
		<path id="u" class="st1" d="M310.2,105.7v32.1c-1,22.9-32.3,22.9-33.1,0v-32.1h-17.3v32.1c0,3.5,0.6,6.9,1.5,10.2
			c4.4,14,17.5,23.6,32.3,23.6S321.6,162,326,148c1-3.3,1.5-6.7,1.5-10.2v-32.1H310.2z"/>
		<path id="S" class="st1" d="M228.3,121c-7.3-1.1-16-2.5-21.7-7.1c-3.7-2.9-2.1-7.5,1.7-10c7.5-4.8,20-2.1,22.5,6.7h19.6
			c0-15.7-16.9-25.9-32.7-25.7c-8.8,0-17.1,2.1-23.4,7.3c-7.7,6.1-11.5,17.9-6.7,26.5c7.9,12.9,26.9,12.7,39.8,17.8
			c3.5,1.7,5.6,3.7,5.6,7.3c0,7.9-7.1,11.1-15.2,11.1c-7.7,0.2-13.4-5.6-14.2-12.7h-19.2c0.6,27.9,37.6,37.8,58.6,21.3
			c5.9-5,9.2-12.1,9.2-19.8C252.3,131.4,240.4,123,228.3,121z"/>
	</g>
	
		<linearGradient id="Icon_00000049907304487787068110000015463056050728797587_" gradientUnits="userSpaceOnUse" x1="32.871" y1="2070.2593" x2="102.9213" y2="1948.9286" gradientTransform="matrix(1 0 0 -1 0 2138)">
		<stop  offset="0" style="stop-color:#FF00A0"/>
		<stop  offset="1" style="stop-color:#9600FF"/>
	</linearGradient>
	<path id="Icon" style="fill:url(#Icon_00000049907304487787068110000015463056050728797587_);" d="M67.9,90.9l37.7,20.9v-8.4
		L67.9,82.5c-5.6,3.1-32.7,18.1-37.7,20.8c4.6,2.6,53.4,29.5,83,45.8v8.3c-4,2.2-45.3,25-45.3,25c-11.3-6.2-34-18.8-45.3-25v-25
		l45.3,25l7.5-4.2l-60.4-33.3v41.7l52.8,29.2c5.2-2.9,48.9-27,52.8-29.2v-16.7l-75.4-41.7L67.9,90.9z M15.1,95v16.7l75.4,41.7
		l-22.6,12.5L30.2,145v8.4l37.7,20.8c5.6-3.1,32.7-18.1,37.7-20.8c-4.6-2.6-53.3-29.5-83-45.9v-8.3c4-2.2,45.3-25,45.3-25
		c11.3,6.2,34,18.8,45.3,25v25l-45.3-25l-7.5,4.2l60.3,33.3V95L67.9,65.9C62.7,68.8,18.9,92.9,15.1,95z M67.9,49.2L0,86.7v83.4
		l67.9,37.5l67.9-37.5V86.7L67.9,49.2z M128.2,165.9l-60.3,33.3L7.5,165.9v-75l60.3-33.3l60.3,33.3L128.2,165.9z"/>
</g>
<g id="Powered_by">
	<path class="st3" d="M19.2,13.8c-0.7,1.4-1.8,2.6-3.3,3.4c-1.5,0.9-3.5,1.3-5.9,1.3H4.7v12.7H0V0h10c2.2,0,4.1,0.4,5.6,1.2
		s2.7,1.9,3.5,3.3s1.1,3,1.1,4.7S19.9,12.4,19.2,13.8z M14,13c0.9-0.9,1.3-2.1,1.3-3.7c0-3.4-1.8-5.1-5.4-5.1H4.7v10.2H10
		C11.8,14.4,13.1,13.9,14,13z"/>
	<path class="st3" d="M28.9,29.7c-1.8-1-3.1-2.4-4.1-4.2c-1-1.8-1.5-3.9-1.5-6.2s0.5-4.4,1.5-6.2s2.4-3.2,4.2-4.2
		c1.8-1,3.8-1.5,6-1.5s4.2,0.5,6,1.5s3.2,2.4,4.2,4.2s1.5,3.9,1.5,6.2s-0.5,4.4-1.6,6.2c-1.1,1.8-2.5,3.2-4.3,4.2s-3.8,1.5-6,1.5
		C32.6,31.2,30.6,30.7,28.9,29.7z M38.2,26.2c1.1-0.6,1.9-1.5,2.6-2.6c0.7-1.2,1-2.6,1-4.2c0-1.7-0.3-3.1-1-4.2s-1.5-2-2.5-2.6
		c-1.1-0.6-2.2-0.9-3.4-0.9s-2.4,0.3-3.4,0.9c-1,0.6-1.9,1.5-2.5,2.6c-0.6,1.2-0.9,2.6-0.9,4.2c0,2.5,0.6,4.4,1.9,5.7
		c1.3,1.3,2.9,2,4.8,2C35.9,27.1,37.1,26.8,38.2,26.2z"/>
	<path class="st3" d="M82.2,7.5L75,31.2h-5l-4.6-17.5l-4.6,17.5h-5L48.6,7.5h4.8l4.8,19l4.9-19h5l4.7,19l4.7-19H82.2z"/>
	<path class="st3" d="M106.6,21.1H89c0.1,1.8,0.8,3.3,2,4.4s2.7,1.7,4.5,1.7c2.6,0,4.4-1.1,5.4-3.2h5.1c-0.7,2.1-2,3.8-3.8,5.2
		c-1.8,1.3-4.1,2-6.8,2c-2.2,0-4.2-0.5-5.9-1.5c-1.7-1-3.1-2.4-4.1-4.2c-1-1.8-1.5-3.9-1.5-6.2c0-2.4,0.5-4.4,1.4-6.2
		c1-1.8,2.3-3.2,4-4.1c1.7-1,3.7-1.5,6-1.5c2.2,0,4.1,0.5,5.8,1.4c1.7,0.9,3,2.3,4,4s1.4,3.7,1.4,5.9
		C106.7,19.6,106.7,20.4,106.6,21.1z M101.8,17.3c0-1.7-0.7-3.2-1.9-4.2c-1.2-1.1-2.7-1.6-4.5-1.6c-1.6,0-3,0.5-4.2,1.6
		c-1.2,1-1.9,2.4-2.1,4.2H101.8z"/>
	<path class="st3" d="M148.2,21.1h-17.5c0.1,1.8,0.8,3.3,2,4.4s2.7,1.7,4.5,1.7c2.6,0,4.4-1.1,5.4-3.2h5.1c-0.7,2.1-2,3.8-3.8,5.2
		c-1.8,1.3-4.1,2-6.8,2c-2.2,0-4.2-0.5-5.9-1.5s-3.1-2.4-4.1-4.2c-1-1.8-1.5-3.9-1.5-6.2c0-2.4,0.5-4.4,1.4-6.2c1-1.8,2.3-3.2,4-4.1
		c1.7-1,3.7-1.5,6-1.5c2.2,0,4.1,0.5,5.8,1.4s3,2.3,4,4s1.4,3.7,1.4,5.9C148.4,19.6,148.3,20.4,148.2,21.1z M143.4,17.3
		c0-1.7-0.7-3.2-1.9-4.2c-1.2-1.1-2.7-1.6-4.5-1.6c-1.6,0-3,0.5-4.2,1.6c-1.2,1-1.9,2.4-2.1,4.2H143.4z"/>
	<path class="st3" d="M241,7.5l-14.1,35.4H222l4.7-11.7l-9-23.7h5.3l6.5,18.3l6.7-18.3H241z"/>
	<path class="st3" d="M214.2,13.1c-0.9-1.8-2.2-3.2-3.9-4.1c-1.6-1-3.5-1.5-5.5-1.5c-1.7,0-3.3,0.4-4.7,1.1s-2.5,1.6-3.3,2.7V0h-4.7
		v29v1.8v0.4h4.7v-0.4V29v-1.6c0.8,1.1,1.9,2,3.3,2.7c1.4,0.7,2.9,1,4.7,1c2,0,3.8-0.5,5.5-1.5s2.9-2.4,3.9-4.2
		c0.9-1.8,1.4-3.9,1.4-6.2S215.2,14.9,214.2,13.1z M209.8,23.4c-0.7,1.2-1.5,2.1-2.6,2.7S205,27,203.8,27s-2.3-0.3-3.4-0.9
		c-1.1-0.6-1.9-1.5-2.6-2.7c-0.7-1.2-1-2.6-1-4.1s0.3-3,1-4.1c0.7-1.2,1.5-2.1,2.6-2.7c1.1-0.6,2.2-0.9,3.4-0.9s2.4,0.3,3.4,0.9
		c1.1,0.6,1.9,1.5,2.6,2.6c0.7,1.2,1,2.5,1,4.1S210.5,22.2,209.8,23.4z"/>
	<path class="st3" d="M170.3,0v11.1c-0.9-1.1-2-2-3.5-2.6s-2.9-1-4.4-1c-2,0-3.9,0.5-5.5,1.5c-1.7,1-3,2.4-3.9,4.1
		c-1,1.8-1.4,3.8-1.4,6.1s0.5,4.4,1.4,6.2c1,1.8,2.3,3.2,3.9,4.2c1.7,1,3.5,1.5,5.5,1.5c1.8,0,3.4-0.4,4.7-1.1s2.4-1.6,3.2-2.7V29
		v1.8v0.4h4.8v-0.4V29V0H170.3z M169.3,23.5c-0.7,1.2-1.5,2.1-2.6,2.7s-2.2,0.9-3.4,0.9s-2.3-0.3-3.4-0.9c-1.1-0.6-1.9-1.5-2.6-2.7
		c-0.7-1.2-1-2.6-1-4.2s0.3-2.9,1-4.1s1.5-2,2.6-2.6s2.2-0.9,3.4-0.9s2.4,0.3,3.4,0.9c1.1,0.6,1.9,1.5,2.6,2.7c0.7,1.2,1,2.5,1,4.1
		S169.9,22.3,169.3,23.5z"/>
	<path class="st3" d="M118.9,8.5c-1.2,0.7-2.1,1.6-2.8,2.8V8.2V7.9V7.5h-4.7v0.4v0.3v23h4.7V18.9c0-2.4,0.5-4,1.4-5
		c1-1,2.4-1.4,4.2-1.4h1.2v-5C121.4,7.5,120,7.8,118.9,8.5z"/>
</g>
</svg>
