<?xml version="1.0" encoding="utf-8"?>
<!-- Generator: Adobe Illustrator 25.4.1, SVG Export Plug-In . SVG Version: 6.00 Build 0)  -->
<svg version="1.1" id="Powered_by_SurrealDB" xmlns="http://www.w3.org/2000/svg" xmlns:xlink="http://www.w3.org/1999/xlink"
	 x="0px" y="0px" viewBox="0 0 4556.4 1284.3" style="enable-background:new 0 0 4556.4 1284.3;" xml:space="preserve">
<style type="text/css">
	.st0{fill:url(#DB_00000113319776593784007200000016066350541424475546_);}
	.st1{fill:#FFFFFF;}
	.st2{fill:url(#Icon_00000111869918462862395170000011724561029623052938_);}
	.st3{fill:#6A7389;}
</style>
<g id="SurrealDB_00000169533926853000093010000005384895597560469145_">
	
		<linearGradient id="DB_00000132060155140854611060000005117936651325913741_" gradientUnits="userSpaceOnUse" x1="3824.8174" y1="1840.082" x2="4261.3765" y2="1083.9393" gradientTransform="matrix(1 0 0 -1 0 2251.0969)">
		<stop  offset="0" style="stop-color:#FF00A0"/>
		<stop  offset="1" style="stop-color:#9600FF"/>
	</linearGradient>
	
		<path id="DB_00000117668069086974823170000008836712270080934308_" style="fill:url(#DB_00000132060155140854611060000005117936651325913741_);" d="
		M4485.7,775.1c84.8-64.3,39.6-206-52.6-238.2c-20.4-8-41.4-11.8-64.3-11.8h-221.5v536.4c13,0,251.2,0,251.2,0
		c42.7,0,83.5-15.5,113.2-43.9C4578.5,953.9,4571,822.8,4485.7,775.1z M4254.9,633.5h110.7c28.5,0,52.6,20.4,51.3,50.1
		c1.2,28.5-22.9,52.6-51.3,51.3h-110.7V633.5z M4392.9,955.2h-138V838.9h138c28.5-1.2,52.6,30.9,51.3,59.4
		C4444.8,925.5,4421.3,956.4,4392.9,955.2z M3937.6,545.6c-33.4-13-69.9-20.4-110.7-20.4H3627v536.4h199.8c42.7,0,81-6.8,114.4-20.4
		c102.1-39.6,159.6-140.4,158.4-248.7C4100.9,684.8,4040.3,584.6,3937.6,545.6z M3985.2,794.3c1.2,84.8-69.3,162.1-154.7,160.8
		h-97.7V634.1h97.7C3916.5,632.2,3986.4,710.8,3985.2,794.3z"/>
	<g id="Surreal_00000094585301067158851890000010306159288291096240_">
		<path id="l_00000042002153319909816330000005163617433724771493_" class="st1" d="M3472.4,525.2v536.4h107V525.2H3472.4z"/>
		<path id="a_00000021809943187320538900000004319973405445436326_" class="st1" d="M3216.2,653.9c-115.1,0-207.9,91.6-207.9,204.1
			s92.8,204.1,207.9,204.1c36.5,0,71.1-9.3,100.8-26v26h107V858C3424.1,745.4,3331.9,653.9,3216.2,653.9z M3215.6,963.8
			c-60.6,0-108.3-47.6-108.3-107c0-58.2,48.9-107,108.3-107c60.6,0,108.3,47.6,108.3,107C3323.3,916.2,3274.4,963.8,3215.6,963.8z"
			/>
		<path id="e_00000058572080178269124830000018150734983334915486_" class="st1" d="M2751,653.9c123.7-3.7,232,115.1,205.4,241.3
			h-304.4c28.5,78.6,131.8,95.3,180.6,28.5H2949c-48.9,144.8-242.5,184.4-347.1,78.6C2468.3,870.4,2569.2,652.7,2751,653.9z
			 M2850,821.5c-35.9-92.8-161.5-92.8-197.3,0H2850z"/>
		<path id="r_00000057839857167460304690000009809339484563692693_" class="st1" d="M2517.2,653.9c-91.6,0-172.6,59.4-199.8,146
			c-6.2,20.4-9.3,41.4-9.3,63.1v198.6h107c0,0,0-190.5,0-198.6c2.5-71.1,52.6-107,102.1-107V653.9z"/>
		<path id="r_00000127733917607274934640000003242199202680124859_" class="st1" d="M2284,653.9c-91.6,0-172.6,59.4-199.8,146
			c-6.2,20.4-9.3,41.4-9.3,63.1v198.6h107c0,0,0-190.5,0-198.6c2.5-71.1,52.6-107,102.1-107V653.9z"/>
		<path id="u_00000089547048559935119800000018211391330049735306_" class="st1" d="M1919,653.9v198.6
			c-6.2,141.7-199.8,141.7-204.8,0V653.9h-107v198.6c0,21.7,3.7,42.7,9.3,63.1c27.2,86.6,108.3,146,199.8,146s173.2-59.4,200.4-146
			c6.2-20.4,9.3-41.4,9.3-63.1V653.9C2026,653.9,1919,653.9,1919,653.9z"/>
		<path id="S_00000022553599680937216630000002758955414789157305_" class="st1" d="M1412.3,748.5c-45.2-6.8-99-15.5-134.2-43.9
			c-22.9-17.9-13-46.4,10.5-61.9c46.4-29.7,123.7-13,139.2,41.4H1549c0-97.1-104.5-160.2-202.3-159c-54.4,0-105.8,13-144.8,45.2
			c-47.6,37.7-71.1,110.7-41.4,163.9c48.9,79.8,166.4,78.6,246.2,110.1c21.7,10.5,34.6,22.9,34.6,45.2c0,48.9-43.9,68.7-94,68.7
			c-47.6,1.2-82.9-34.6-87.8-78.6h-118.8c3.7,172.6,232.6,233.8,362.5,131.8c36.5-30.9,56.9-74.9,56.9-122.5
			C1560.8,812.9,1487.2,760.9,1412.3,748.5z"/>
	</g>
	
		<linearGradient id="Icon_00000063623466217422310010000014227690277880295086_" gradientUnits="userSpaceOnUse" x1="203.333" y1="-1703.0438" x2="636.764" y2="-952.3192" gradientTransform="matrix(1 0 0 1 0 2122)">
		<stop  offset="0" style="stop-color:#FF00A0"/>
		<stop  offset="1" style="stop-color:#9600FF"/>
	</linearGradient>
	
		<path id="Icon_00000057851034464450872440000010369422943554633628_" style="fill:url(#Icon_00000063623466217422310010000014227690277880295086_);" d="
		M420,562.3l233.2,129.3v-52L420,510.4c-34.6,19.2-202.3,112-233.2,128.7c28.5,16.1,330.3,182.5,513.5,283.3v51.3
		C675.5,987.3,420,1128.4,420,1128.4c-69.9-38.4-210.3-116.3-280.2-154.7V819.1L420,973.7l46.4-26l-373.7-206v258l326.6,180.6
		c32.2-17.9,302.5-167,326.6-180.6V896.4l-466.4-258L420,562.3z M93.4,587.7V691l466.4,258L420,1026.3L186.8,897v52L420,1077.7
		c34.6-19.2,202.3-112,233.2-128.7c-28.5-16.1-329.7-182.5-513.5-284v-51.3C164.6,600.1,420,459,420,459
		c69.9,38.4,210.3,116.3,280.2,154.7v154.7L420,613.7l-46.4,26l373,206v-258L420,407.7C387.9,425.6,116.9,574.7,93.4,587.7z
		 M420,304.4L0,536.4v515.9l420,232l420-232V536.4L420,304.4z M793.1,1026.3l-373,206l-373.7-206v-464l373-206l373,206L793.1,1026.3
		z"/>
</g>
<g id="Powered_by">
	<path class="st3" d="M118.8,85.4c-4.3,8.7-11.1,16.1-20.4,21c-9.3,5.6-21.7,8-36.5,8H29.1V193H0V0h61.9c13.6,0,25.4,2.5,34.6,7.4
		s16.7,11.8,21.7,20.4s6.8,18.6,6.8,29.1S123.1,76.7,118.8,85.4z M86.6,80.4c5.6-5.6,8-13,8-22.9c0-21-11.1-31.6-33.4-31.6H29.1
		v63.1h32.8C73,89.1,81,86,86.6,80.4z"/>
	<path class="st3" d="M178.8,183.7c-11.1-6.2-19.2-14.8-25.4-26c-6.2-11.1-9.3-24.1-9.3-38.4s3.1-27.2,9.3-38.4s14.8-19.8,26-26
		c11.1-6.2,23.5-9.3,37.1-9.3s26,3.1,37.1,9.3c11.1,6.2,19.8,14.8,26,26s9.3,24.1,9.3,38.4s-3.1,27.2-9.9,38.4
		c-6.8,11.1-15.5,19.8-26.6,26c-11.1,6.2-23.5,9.3-37.1,9.3C201.7,193,189.3,189.9,178.8,183.7z M236.3,162.1
		c6.8-3.7,11.8-9.3,16.1-16.1c4.3-7.4,6.2-16.1,6.2-26c0-10.5-1.9-19.2-6.2-26c-4.3-6.8-9.3-12.4-15.5-16.1
		c-6.8-3.7-13.6-5.6-21-5.6c-7.4,0-14.8,1.9-21,5.6c-6.2,3.7-11.8,9.3-15.5,16.1c-3.7,7.4-5.6,16.1-5.6,26
		c0,15.5,3.7,27.2,11.8,35.3c8,8,17.9,12.4,29.7,12.4C222.1,167.6,229.5,165.8,236.3,162.1z"/>
	<path class="st3" d="M508.5,46.4L464,193H433L404.6,84.8L376.1,193h-30.9L300.7,46.4h29.7L360,163.9l30.3-117.5h30.9l29.1,117.5
		l29.1-117.5H508.5z"/>
	<path class="st3" d="M659.5,130.5H550.6c0.6,11.1,4.9,20.4,12.4,27.2c7.4,6.8,16.7,10.5,27.8,10.5c16.1,0,27.2-6.8,33.4-19.8h31.6
		c-4.3,13-12.4,23.5-23.5,32.2c-11.1,8-25.4,12.4-42.1,12.4c-13.6,0-26-3.1-36.5-9.3c-10.5-6.2-19.2-14.8-25.4-26
		c-6.2-11.1-9.3-24.1-9.3-38.4c0-14.8,3.1-27.2,8.7-38.4c6.2-11.1,14.2-19.8,24.7-25.4c10.5-6.2,22.9-9.3,37.1-9.3
		c13.6,0,25.4,3.1,35.9,8.7s18.6,14.2,24.7,24.7s8.7,22.9,8.7,36.5C660.1,121.3,660.1,126.2,659.5,130.5z M629.8,107
		c0-10.5-4.3-19.8-11.8-26c-7.4-6.8-16.7-9.9-27.8-9.9c-9.9,0-18.6,3.1-26,9.9c-7.4,6.2-11.8,14.8-13,26H629.8z"/>
	<path class="st3" d="M916.8,130.5H808.5c0.6,11.1,4.9,20.4,12.4,27.2s16.7,10.5,27.8,10.5c16.1,0,27.2-6.8,33.4-19.8h31.6
		c-4.3,13-12.4,23.5-23.5,32.2c-11.1,8-25.4,12.4-42.1,12.4c-13.6,0-26-3.1-36.5-9.3c-10.5-6.2-19.2-14.8-25.4-26
		c-6.2-11.1-9.3-24.1-9.3-38.4c0-14.8,3.1-27.2,8.7-38.4c6.2-11.1,14.2-19.8,24.7-25.4c10.5-6.2,22.9-9.3,37.1-9.3
		c13.6,0,25.4,3.1,35.9,8.7s18.6,14.2,24.7,24.7s8.7,22.9,8.7,36.5C918,121.3,917.4,126.2,916.8,130.5z M887.1,107
		c0-10.5-4.3-19.8-11.8-26c-7.4-6.8-16.7-9.9-27.8-9.9c-9.9,0-18.6,3.1-26,9.9c-7.4,6.2-11.8,14.8-13,26H887.1z"/>
	<path class="st3" d="M1490.9,46.4l-87.2,219h-30.3l29.1-72.4l-55.7-146.6h32.8l40.2,113.2l41.4-113.2H1490.9z"/>
	<path class="st3" d="M1325.1,81c-5.6-11.1-13.6-19.8-24.1-25.4c-9.9-6.2-21.7-9.3-34-9.3c-10.5,0-20.4,2.5-29.1,6.8
		s-15.5,9.9-20.4,16.7V0h-29.1v179.4v11.1v2.5h29.1v-2.5v-11.1v-9.9c4.9,6.8,11.8,12.4,20.4,16.7c8.7,4.3,17.9,6.2,29.1,6.2
		c12.4,0,23.5-3.1,34-9.3c10.5-6.2,17.9-14.8,24.1-26c5.6-11.1,8.7-24.1,8.7-38.4S1331.3,92.2,1325.1,81z M1297.9,144.8
		c-4.3,7.4-9.3,13-16.1,16.7c-6.8,3.7-13.6,5.6-21,5.6c-7.4,0-14.2-1.9-21-5.6c-6.8-3.7-11.8-9.3-16.1-16.7
		c-4.3-7.4-6.2-16.1-6.2-25.4s1.9-18.6,6.2-25.4c4.3-7.4,9.3-13,16.1-16.7c6.8-3.7,13.6-5.6,21-5.6c7.4,0,14.8,1.9,21,5.6
		c6.8,3.7,11.8,9.3,16.1,16.1c4.3,7.4,6.2,15.5,6.2,25.4S1302.2,137.3,1297.9,144.8z"/>
	<path class="st3" d="M1053.5,0v68.7c-5.6-6.8-12.4-12.4-21.7-16.1c-9.3-3.7-17.9-6.2-27.2-6.2c-12.4,0-24.1,3.1-34,9.3
		c-10.5,6.2-18.6,14.8-24.1,25.4c-6.2,11.1-8.7,23.5-8.7,37.7s3.1,27.2,8.7,38.4c6.2,11.1,14.2,19.8,24.1,26
		c10.5,6.2,21.7,9.3,34,9.3c11.1,0,21-2.5,29.1-6.8c8-4.3,14.8-9.9,19.8-16.7v10.5v11.1v2.5h29.7v-2.5v-11.1V0H1053.5z
		 M1047.3,145.4c-4.3,7.4-9.3,13-16.1,16.7s-13.6,5.6-21,5.6s-14.2-1.9-21-5.6c-6.8-3.7-11.8-9.3-16.1-16.7
		c-4.3-7.4-6.2-16.1-6.2-26s1.9-17.9,6.2-25.4c4.3-7.4,9.3-12.4,16.1-16.1c6.8-3.7,13.6-5.6,21-5.6s14.8,1.9,21,5.6
		c6.8,3.7,11.8,9.3,16.1,16.7c4.3,7.4,6.2,15.5,6.2,25.4S1051,138,1047.3,145.4z"/>
	<path class="st3" d="M735.5,52.6c-7.4,4.3-13,9.9-17.3,17.3V50.7v-1.9v-2.5h-29.1v2.5v1.9V193h29.1v-76.1c0-14.8,3.1-24.7,8.7-30.9
		c6.2-6.2,14.8-8.7,26-8.7h7.4V46.4C751,46.4,742.4,48.3,735.5,52.6z"/>
</g>
</svg>
