<?xml version="1.0" encoding="utf-8"?>
<!-- Generator: Adobe Illustrator 25.4.1, SVG Export Plug-In . SVG Version: 6.00 Build 0)  -->
<svg version="1.1" id="SurrealDB" xmlns="http://www.w3.org/2000/svg" xmlns:xlink="http://www.w3.org/1999/xlink" x="0px" y="0px"
	 viewBox="0 0 736.6 207.6" style="enable-background:new 0 0 736.6 207.6;" xml:space="preserve">
<style type="text/css">
	.st0{fill:#6A7389;}
	.st1{fill:#171A21;}
	.st2{fill:url(#SVGID_1_);}
	.st3{fill:url(#SVGID_00000148621815092348566650000017236945718302604713_);}
</style>
<g>
	<path class="st0" d="M17.6,2.4c1.7,1.6,2.6,3.7,2.6,6.1s-0.9,4.5-2.6,6.3s-4.4,2.6-7.9,2.6H4.5v11.9H0V0h10.1
		C13.3,0,15.9,0.9,17.6,2.4z M4.7,13.6H10c1.7,0,3.1-0.3,4-1.2c1-1,1.6-2.1,1.6-3.7S15,5.9,14.2,5.1c-0.9-0.9-2.3-1.4-4-1.4H4.9v10
		C4.9,13.6,4.7,13.6,4.7,13.6z"/>
	<path class="st0" d="M35,29.2c-3.3,0-6.1-1-8.4-3.3c-2.1-2.1-3.1-4.9-3.1-8.4s1-6.3,3.3-8.6c2.3-2.1,5.1-3.3,8.4-3.3s6.1,1,8.4,3.3
		c2.3,2.1,3.3,4.9,3.3,8.4s-1.2,6.3-3.5,8.6C41.2,28,38.4,29.2,35,29.2z M40,23.1c1.4-1.4,2.1-3.3,2.1-5.8s-0.7-4.4-2.1-5.8
		s-3-2.1-4.9-2.1s-3.5,0.7-4.9,2.1s-1.9,3.3-1.9,5.8s0.7,4.4,1.9,5.8c1.2,1.4,3,2.1,4.7,2.1C36.9,25.2,38.6,24.5,40,23.1z"/>
	<path class="st0" d="M77.6,5.6h4.7l-7.2,23.6H70l-4.7-17.3l-4.7,17.3h-5.1l-7-23.6h4.9l4.7,18.9L63,5.6h5.1l4.7,18.9L77.6,5.6z"/>
	<path class="st0" d="M95.2,29.2c-3.3,0-6.1-1-8.2-3.1c-2.1-2.3-3.1-5.1-3.1-8.6s1-6.5,3.1-8.6s4.9-3.1,8.2-3.1c3.3,0,6.1,1,8.2,3.1
		c2.1,1.9,3.1,4.5,3.1,7.9c0,0.9,0,1.6-0.2,2.3H88.8c0.2,1.9,0.7,3.3,1.9,4.5c1.2,1,2.6,1.7,4.5,1.7c2.6,0,4.4-1,5.4-3.1h5.2
		c-0.7,2.1-1.9,3.8-3.8,5.1C100.1,28.5,97.9,29.2,95.2,29.2z M99.8,11.4c-1.2-1-2.8-1.7-4.5-1.7s-3.3,0.5-4.4,1.7
		c-1,1.2-1.9,2.6-2.1,4.4h12.8C101.7,14,101,12.4,99.8,11.4z"/>
	<path class="st0" d="M115.7,6.1v4c1.4-3,3.8-4.4,7-4.4v4.9h-1.2c-1.9,0-3.3,0.5-4.2,1.4c-1,0.9-1.4,2.6-1.4,4.9v12.2h-4.7v-23
		C111.2,6.1,115.7,6.1,115.7,6.1z"/>
	<path class="st0" d="M136.3,29.2c-3.3,0-6.1-1-8.2-3.1C126,24,125,21,125,17.5s1-6.5,3.1-8.6s4.9-3.1,8.2-3.1s6.1,1,8.2,3.1
		c2.1,2.1,3.1,4.7,3.1,8c0,0.9,0,1.6-0.2,2.3H130c0.2,1.9,0.7,3.3,1.9,4.5c1.2,1,2.6,1.7,4.5,1.7c2.6,0,4.4-1,5.4-3.1h5.2
		c-0.7,2.1-1.9,3.8-3.8,5.1C141.4,28.5,139.1,29.2,136.3,29.2z M140.8,11.4c-1.2-1-2.8-1.7-4.5-1.7s-3.3,0.5-4.4,1.7
		s-1.7,2.6-1.9,4.4h12.8C142.8,14,142.1,12.4,140.8,11.4z"/>
	<path class="st0" d="M169.3,10.1c-0.7-1.4-1.7-2.4-3.1-3.1c-1.4-0.9-3-1.2-4.7-1.2c-3.1,0-5.8,1-7.9,3.3c-2.1,2.1-3.1,4.9-3.1,8.4
		s1,6.3,3.1,8.6s4.7,3.3,7.7,3.3c1.7,0,3.5-0.3,4.7-1.2c1.4-0.9,2.4-1.9,3.1-3.3V29h4.9V0h-4.9L169.3,10.1L169.3,10.1z M167.2,23.1
		c-1.2,1.4-3,1.9-4.9,1.9s-3.5-0.7-4.9-2.1s-2.1-3.3-2.1-5.6s0.7-4.2,2.1-5.6c1.4-1.4,3-2.1,4.9-2.1s3.5,0.7,4.9,2.1
		s2.1,3.1,2.1,5.6S168.6,21.7,167.2,23.1z"/>
	<path class="st0" d="M212.8,8.9c-2.1-2.1-4.7-3.3-7.7-3.3c-1.7,0-3.5,0.3-4.7,1.2c-1.4,0.9-2.4,1.9-3.3,3.1V0h-4.9v28.8h4.7v-4.4
		c0.9,1.4,1.9,2.4,3.3,3.3c1.4,0.9,3,1.2,4.7,1.2c3.1,0,5.6-1,7.7-3.3c2.1-2.3,3.1-5.1,3.1-8.6C216,13.8,214.9,11,212.8,8.9z
		 M209,22.9c-1.4,1.4-3,2.1-4.9,2.1s-3.5-0.7-4.9-2.1s-2.1-3.3-2.1-5.6s0.7-4.2,2.1-5.6c1.4-1.4,3-2.1,4.9-2.1s3.5,0.7,4.9,2.1
		s2.1,3.1,2.1,5.6S210.4,21.5,209,22.9z"/>
	<path class="st0" d="M226.7,29.2l-9.1-23.4h5.2l6.5,18.2l6.8-18.2h4.9l-14.2,35.1h-4.9L226.7,29.2z"/>
</g>
<path class="st1" d="M231.8,121.1c12.1,1.9,24,10.4,23.8,22.9c0,7.7-3.3,14.8-9.2,19.8c-21,16.6-58.1,6.5-58.7-21.3h19.2
	c0.8,7.1,6.5,12.9,14.2,12.7c8.1,0,15.2-3.3,15.2-11.2c0-3.7-2.1-5.6-5.6-7.3c-12.9-5.2-31.9-5-39.8-17.9c-4.8-8.6-1-20.4,6.7-26.5
	c6.4-5.2,14.6-7.3,23.5-7.3c15.8-0.2,32.7,10,32.7,25.8h-19.6c-2.5-8.8-15-11.5-22.5-6.7c-3.8,2.5-5.4,7.1-1.7,10
	C215.8,118.6,224.5,119.9,231.8,121.1z"/>
<path class="st1" d="M444.7,105.7c20-0.6,37.5,18.7,33.3,39h-49.2c4.6,12.7,21.4,15.4,29.2,4.6h18.9c-7.9,23.5-39.2,29.8-56.2,12.7
	C398.9,140.7,415.3,105.5,444.7,105.7z M460.7,132.8c-5.8-15-26.2-15-31.9,0H460.7z"/>
<path class="st1" d="M561.5,84.9h17.3v86.9h-17.3V84.9z"/>
<g>
	<g>
		
			<linearGradient id="SVGID_1_" gradientUnits="userSpaceOnUse" x1="618.3774" y1="151.3945" x2="688.9396" y2="29.1771" gradientTransform="matrix(1 0 0 -1 0 217.89)">
			<stop  offset="0" style="stop-color:#FF00A0"/>
			<stop  offset="1" style="stop-color:#9600FF"/>
		</linearGradient>
		<path class="st2" d="M636.7,88.2c-5.4-2.1-11.3-3.3-17.9-3.3h-32.3v86.8h32.3c6.9,0,13.1-1.1,18.5-3.3
			c16.5-6.4,25.8-22.7,25.6-40.2C663,110.7,653.2,94.5,636.7,88.2z M619.4,154.4h-15.8v-52h15.8c13.9-0.2,25.2,12.5,25,26
			C644.5,142,633.2,154.6,619.4,154.4z M725.1,125.3c13.7-10.4,6.4-33.3-8.5-38.5c-3.3-1.3-6.7-1.9-10.4-1.9h-35.8v86.8
			c2.1,0,40.6,0,40.6,0c6.9,0,13.5-2.5,18.3-7.1C740.2,154.2,739,133,725.1,125.3z M687.6,102.4h18.1c4.6,0,8.5,3.3,8.3,8.1
			c0.2,4.6-3.7,8.5-8.3,8.3h-18.1V102.4z M710.1,154.4h-22.3v-18.9h22.3c4.6-0.2,8.5,5,8.3,9.6C718.6,149.5,714.8,154.6,710.1,154.4
			z"/>
	</g>
</g>
<path class="st1" d="M311.8,109.7v28.1c-1,22.9-32.3,22.9-33.1,0c0-2.5,0-30.6,0-32.1h-17.3v32.1c0,3.5,0.6,6.9,1.5,10.2
	c4.4,14,17.5,23.7,32.3,23.7s27.9-9.6,32.3-23.7c1-3.3,1.5-6.7,1.5-10.2v-32.1h-17.3L311.8,109.7L311.8,109.7z"/>
<path class="st1" d="M553.8,138.8c0-18.3-15-33.1-33.7-33.1s-33.7,14.8-33.7,33.1s15,33.1,33.7,33.1c6,0,11.5-1.5,16.3-4.2v4.2h17.3
	L553.8,138.8L553.8,138.8L553.8,138.8z M519.9,155.9c-9.8,0-17.5-7.7-17.5-17.3c0-9.4,7.9-17.3,17.5-17.3c9.8,0,17.5,7.7,17.5,17.3
	S529.5,155.9,519.9,155.9z"/>
<path class="st1" d="M370.6,105.7c-14.8,0-27.9,9.6-32.3,23.7c-1,3.3-1.5,6.7-1.5,10.2v32.1l0,0h17.3c0,0,0-30.8,0-32.1
	c0.4-11.5,8.5-17.3,16.5-17.3V105.7L370.6,105.7z"/>
<path class="st1" d="M407.6,105.7c-14.8,0-27.9,9.6-32.3,23.7c-1,3.3-1.5,6.7-1.5,10.2v32.1l0,0H391c0,0,0-30.8,0-32.1
	c0.4-11.5,8.5-17.3,16.5-17.3L407.6,105.7L407.6,105.7z"/>
<linearGradient id="SVGID_00000032629426293893754180000007372642447651385771_" gradientUnits="userSpaceOnUse" x1="32.8684" y1="1875.6134" x2="102.9316" y2="1996.9666" gradientTransform="matrix(1 0 0 1 0 -1807.89)">
	<stop  offset="0" style="stop-color:#FF00A0"/>
	<stop  offset="1" style="stop-color:#9600FF"/>
</linearGradient>
<path style="fill:url(#SVGID_00000032629426293893754180000007372642447651385771_);" d="M120.7,145.1l-75.4-41.7l22.6-12.5
	l37.7,20.9v-8.4L67.9,82.5c-5.6,3.1-32.7,18.1-37.7,20.8c4.6,2.6,53.4,29.5,83,45.9v8.3c-4,2.2-45.3,25-45.3,25
	c-11.3-6.2-34-18.8-45.3-25v-25l45.3,25l0,0l7.6-4.2L15.1,120v41.7l52.8,29.2c5.2-2.9,49-27,52.8-29.2l0,0V145.1L120.7,145.1z
	 M67.9,49.2L0,86.7v83.4l67.9,37.5l67.9-37.5V86.7L67.9,49.2z M128.2,165.9L128.2,165.9l-60.3,33.4L7.6,165.9v-75l0,0L68,57.5
	l60.4,33.4L128.2,165.9L128.2,165.9z M15.1,95v16.7l75.4,41.7l-22.6,12.5L30.2,145v8.4l37.7,20.8c5.6-3.1,32.7-18.1,37.7-20.8
	c-4.6-2.6-53.4-29.5-83-45.9v-8.3c4-2.2,45.3-25,45.3-25c11.3,6.2,34,18.8,45.3,25v25l-45.3-25l0,0l-7.6,4.2l60.4,33.4V95L67.9,65.8
	C62.7,68.7,18.9,92.9,15.1,95z"/>
</svg>
