<?xml version="1.0" encoding="utf-8"?>
<!-- Generator: Adobe Illustrator 25.2.3, SVG Export Plug-In . SVG Version: 6.00 Build 0)  -->
<svg version="1.1" id="Layer_1" xmlns="http://www.w3.org/2000/svg" xmlns:xlink="http://www.w3.org/1999/xlink" x="0px" y="0px"
	 viewBox="0 0 517.4 119.4" style="enable-background:new 0 0 517.4 119.4;" xml:space="preserve">
<style type="text/css">
	.st0{fill:#00A586;}
</style>
<path class="st0" d="M198.5,83.1c0,19.6-15.9,35.5-35.5,35.5l-26.1,0h-17.5c0,0-0.5,0-0.5,0c0,0,0.1,0,0.1,0
	c-9.1,0-16.6-7.4-16.6-16.6v-0.4c0,0,0-78,0-78.2c0-0.2-0.1-3.2-0.1-3.2c0-0.1,0-0.1,0-0.2c0-1.6-1.3-2.9-2.9-2.9
	c-1.1,0-1.8,0.6-2.1,0.9c-0.3,0.4-1.7,2.2-1.7,2.2c-0.1,0.1-0.1,0.2-0.2,0.2L53.1,70.8h27.4c4.6,0,8.3,3.7,8.3,8.3
	c0,4.6-3.7,8.3-8.3,8.3H39l-24.3,28.8c-3,3.5-8.2,4-11.7,1c-2-1.6-3-4-3-6.4c0-1.9,0.6-3.8,2-5.4c0,0,80.5-95.4,80.7-95.7
	c0.2-0.2,1.8-2.3,1.8-2.3c0.1-0.1,0.2-0.2,0.3-0.4c3.7-4.2,9.1-6.7,14.7-6.7c10.8,0,19.6,8.8,19.6,19.6c0-0.1,0-0.1,0-0.2l0.1,3.3
	c0,0.1,0,0.1,0,0.2c0,0,0,78.5,0,78.6c0,0,0.2,0,0.3,0c0.1,0,17.4,0,17.4,0l26.1,0c10.4,0,18.9-8.5,18.9-18.9
	c0-10.3-8.4-18.8-18.7-18.9c-0.1,0-0.3,0-0.4,0c-0.1,0-0.2,0-0.3,0h-21.9c-4.6,0-8.3-3.7-8.3-8.3c0-4.6,3.7-8.3,8.3-8.3h22.4
	c0,0,0,0,0,0c8.3-0.2,15.1-7,15.1-15.4c0-8.5-6.9-15.4-15.4-15.4l-22.1,0c-4.6,0-8.3-3.7-8.4-8.3c0-4.6,3.7-8.3,8.3-8.4l22.1,0
	c17.7,0,32,14.4,32,32c0,9-3.8,17.2-9.8,23C193.2,61.7,198.5,71.8,198.5,83.1z M378.4,105.5c0,0-23.8-28.2-32.8-39
	c8.9-6.9,14.4-17.7,14.4-29.3c0-20.1-15.7-36.4-35.8-37c-0.1,0-0.2,0-0.3,0l-19.7,0l-8.8,0c-4.6,0-8.3,3.7-8.3,8.3v92.5
	c0,0,0,0.7,0,0.9c-0.2,0-1.2,0-1.2,0s-47.3,0-60.1,0c0-5.8,0-21.3,0-37.7h38.3c4.6,0,8.3-3.7,8.3-8.3c0-4.6-3.7-8.3-8.3-8.3h-38.3
	c0-13.8,0-25.9,0-31c11.7,0,40.5,0,40.5,0c4.6,0,8.3-3.7,8.3-8.3c0-4.6-3.7-8.3-8.3-8.3h-48.8c-4.6,0-8.3,3.7-8.3,8.3l0,102
	c0,2.2,0.9,4.3,2.4,5.9c1.6,1.6,3.7,2.4,5.9,2.4l68.5,0l1.3,0c9.1,0,16.6-7.4,16.6-16.6l0-1c0,0,0-70.3,0-84.1c0,0,19.5,0,19.9,0
	c11,0.4,19.6,9.3,19.6,20.3c0,8.5-5.4,16.2-13.4,19.1c-2.6,0.9-4.5,3.1-5.2,5.7c-0.2,0.7-0.3,1.4-0.3,2.2c0,1.9,0.7,3.9,2,5.4
	l39.3,46.6c3,3.5,8.2,4,11.8,1c2-1.7,3-4,3-6.4C380.4,108.9,379.7,107,378.4,105.5z"/>
</svg>
