<?xml version="1.0" encoding="utf-8"?>
<!-- Generator: Adobe Illustrator 24.1.0, SVG Export Plug-In . SVG Version: 6.00 Build 0)  -->
<svg version="1.1" id="Layer_1" xmlns="http://www.w3.org/2000/svg" xmlns:xlink="http://www.w3.org/1999/xlink" x="0px" y="0px"
	 viewBox="0 0 22 22" style="enable-background:new 0 0 22 22;" xml:space="preserve">
<style type="text/css">
	.st0{fill:#33CC66;}
	.st1{display:none;fill:#33CC66;}
	.st2{fill:#FFFFFF;}
</style>
<g id="Layer_1_1_">
	<path class="st0" d="M11,0C4.9,0,0,4.9,0,11s4.9,11,11,11s11-4.9,11-11S17.1,0,11,0z M11,20c-5,0-9-4-9-9s4-9,9-9s9,4,9,9
		S16,20,11,20z"/>
	<path class="st1" d="M15.9,11.4c0.1-0.2,0.1-0.5,0-0.8c-0.1-0.1-4.2-4.3-4.2-4.3c-0.4-0.4-1-0.4-1.4,0s-0.4,1,0,1.4l2.3,2.3H7
		c-0.8,0-1,0.4-1,1s0.4,1,1,1h5.6l-2.3,2.3c-0.4,0.4-0.4,1,0,1.4c0.2,0.2,0.5,0.3,0.7,0.3s0.5-0.1,0.7-0.3
		C11.7,15.7,15.9,11.5,15.9,11.4z"/>
</g>
<g id="Layer_2_1_">
</g>
<circle class="st0" cx="11" cy="11.1" r="9.5"/>
<g id="Layer_5">
</g>
<g id="Layer_4">
</g>
<path id="_Compound_Path_" class="st2" d="M9,15.6l-4.1-4.1L6,10.4l3,3l7-7l1.1,1.1L9,15.6"/>
</svg>
