<svg id="Layer_1" data-name="Layer 1" xmlns="http://www.w3.org/2000/svg" viewBox="0 0 712.69 290.3"><defs><style>.cls-1{fill:#e7392a;}.cls-2{fill:#465661;}.cls-3{fill:#010101;}.cls-4{fill:#fff;}</style></defs><rect class="cls-1" width="290.3" height="290.3"/><path class="cls-2" d="M450.16,293.91c-.86.3-1.78.56-2.77.8s-2,.43-3.09.59a20.77,20.77,0,0,1-3.08.24,19.44,19.44,0,0,1-6.6-1.07,13,13,0,0,1-5.08-3.29,15.29,15.29,0,0,1-3.27-5.63,25.27,25.27,0,0,1-1.16-8.09,21.45,21.45,0,0,1,1.19-7.32,15.78,15.78,0,0,1,3.41-5.63,15.17,15.17,0,0,1,5.36-3.62,18.92,18.92,0,0,1,11.59-.66,22.37,22.37,0,0,1,4.54,1.65l-2.5,5.27a33.94,33.94,0,0,0-3.76-1.22,12.15,12.15,0,0,0-2.93-.38,10.11,10.11,0,0,0-3.11.53,8.19,8.19,0,0,0-3,1.85,9.68,9.68,0,0,0-2.28,3.54,15.42,15.42,0,0,0-.89,5.63,23.86,23.86,0,0,0,.68,6.17,11.06,11.06,0,0,0,1.84,3.93,6.6,6.6,0,0,0,2.73,2.09,9.23,9.23,0,0,0,3.41.62q1.18,0,2.07-.09c.59-.06,1.16-.12,1.72-.21V278h7.17v15.06a23.08,23.08,0,0,1-2.16.86" transform="translate(-64.98 -152.14)"/><polygon class="cls-2" points="395.64 104.52 402.81 104.52 402.81 142.58 395.64 142.58 395.64 126.07 395.64 104.52"/><path class="cls-2" d="M491.77,279.8a6.86,6.86,0,0,0-1.11-2.09,5.12,5.12,0,0,0-1.78-1.44,5.51,5.51,0,0,0-2.45-.53,4.73,4.73,0,0,0-2.5.62,4.8,4.8,0,0,0-1.64,1.68,7.67,7.67,0,0,0-.89,2.47,15.83,15.83,0,0,0-.27,3,9.57,9.57,0,0,0,.29,2.24,6.3,6.3,0,0,0,1,2.11,5.29,5.29,0,0,0,4.5,2.18,4.41,4.41,0,0,0,2.47-.65,5,5,0,0,0,1.61-1.7,7.86,7.86,0,0,0,.9-2.47,16.48,16.48,0,0,0,.27-2.94,7.74,7.74,0,0,0-.39-2.47m6.9,7.86a11.32,11.32,0,0,1-6.54,6.67,14.32,14.32,0,0,1-5.43,1,14.9,14.9,0,0,1-5.33-.89,10.84,10.84,0,0,1-4-2.52,11.18,11.18,0,0,1-2.53-3.94,14.13,14.13,0,0,1-.88-5.09,13.53,13.53,0,0,1,.86-4.92,11,11,0,0,1,2.51-3.92,12,12,0,0,1,4-2.61,14.26,14.26,0,0,1,5.33-.94,13.79,13.79,0,0,1,5.28,1,12.34,12.34,0,0,1,4.06,2.64,11.32,11.32,0,0,1,2.6,3.88,12.06,12.06,0,0,1,.92,4.71,13.63,13.63,0,0,1-.89,5" transform="translate(-64.98 -152.14)"/><path class="cls-2" d="M521.05,277.58a3.41,3.41,0,0,0-3.23-2,10.49,10.49,0,0,0-2.7.38c-1,.26-1.75.49-2.34.68v13.22a19.86,19.86,0,0,0,3.56.36,4.35,4.35,0,0,0,2.25-.63,5.79,5.79,0,0,0,1.84-1.69,8.84,8.84,0,0,0,1.22-2.46,9.71,9.71,0,0,0,.44-2.93,10.65,10.65,0,0,0-1-4.92m7.29,9.6a12.7,12.7,0,0,1-2.6,4.3,11.83,11.83,0,0,1-4.09,2.82,13.94,13.94,0,0,1-5.43,1,23.29,23.29,0,0,1-5.1-.59,45.88,45.88,0,0,1-5.27-1.54V256.65h6.93v15.42c1-.4,2.06-.76,3.09-1.1a10.35,10.35,0,0,1,3.2-.5,9.46,9.46,0,0,1,4.27.94,10.5,10.5,0,0,1,3.23,2.5,10.31,10.31,0,0,1,2,3.58,13.21,13.21,0,0,1,.68,4.18,15.61,15.61,0,0,1-.92,5.51" transform="translate(-64.98 -152.14)"/><path class="cls-2" d="M543,285.52a4.35,4.35,0,0,0-2.08.5,2,2,0,0,0-.94,1.94,2.54,2.54,0,0,0,.54,1.65,1.67,1.67,0,0,0,1.33.65,7.76,7.76,0,0,0,2.75-.5c.9-.33,1.63-.62,2.2-.86l.06-3.55Zm4,6.88c-.83.59-1.79,1.21-2.88,1.87a7.3,7.3,0,0,1-3.79,1,7.89,7.89,0,0,1-5.16-1.68,6.34,6.34,0,0,1-2.05-5.19,5.46,5.46,0,0,1,2.4-4.95,11.9,11.9,0,0,1,6.25-1.69l5-.18V279.6c0-1.39-.22-2.24-.68-2.55a3.22,3.22,0,0,0-1.87-.48,17.34,17.34,0,0,0-3.44.36c-1.18.24-2.61.61-4.27,1.12l-2.07-5.33a35.28,35.28,0,0,1,5.37-1.69,23.35,23.35,0,0,1,5.06-.56,11.6,11.6,0,0,1,3.92.62,8.22,8.22,0,0,1,2.86,1.69,6.83,6.83,0,0,1,1.72,2.52,8.26,8.26,0,0,1,.57,3.05v16.36h-6.92Z" transform="translate(-64.98 -152.14)"/><polygon class="cls-2" points="496.23 104.52 503.4 104.52 503.4 142.58 496.23 142.58 496.23 125.31 496.23 104.52"/><path class="cls-2" d="M606.73,277.05a10,10,0,0,0-1.15-.39,5.16,5.16,0,0,0-1.39-.21,3.88,3.88,0,0,0-1.19.21,7.94,7.94,0,0,0-1.33.57,13.92,13.92,0,0,0-1.28.74c-.39.26-.73.51-1,.74v16h-7.17V271.36h7.11v2.31c.28-.28.64-.6,1.07-.95a16,16,0,0,1,1.45-1,8.53,8.53,0,0,1,1.75-.83,5.92,5.92,0,0,1,2-.32,7.05,7.05,0,0,1,2.67.41l.94.42-1.95,5.86a3.12,3.12,0,0,1-.48-.17" transform="translate(-64.98 -152.14)"/><path class="cls-2" d="M627.15,278.5a6.18,6.18,0,0,0-.62-1.6,3.6,3.6,0,0,0-1.12-1.24,3,3,0,0,0-1.78-.51,3.46,3.46,0,0,0-2,.59,5,5,0,0,0-1.42,1.51,7.53,7.53,0,0,0-.86,2.11,9.62,9.62,0,0,0-.3,2.37l8.3-1.72.06.06a10.35,10.35,0,0,0-.27-1.57m3.14,15.89a18.31,18.31,0,0,1-6.13.92q-5.86,0-9-3.18t-3.11-8.74a16.86,16.86,0,0,1,.71-4.89,12.22,12.22,0,0,1,2.13-4.12,10.53,10.53,0,0,1,3.59-2.85,11.19,11.19,0,0,1,5-1.06,11.38,11.38,0,0,1,4.5.8,9.26,9.26,0,0,1,3.24,2.22,12.6,12.6,0,0,1,2.19,3.32,27.67,27.67,0,0,1,1.45,4.09L632.58,284l-13.1,1.66a7.25,7.25,0,0,0,1.81,3.17,4.5,4.5,0,0,0,3.35,1.22,11.26,11.26,0,0,0,3.88-.71,32.27,32.27,0,0,0,3.82-1.72l2.79,4.5a26.89,26.89,0,0,1-4.84,2.29" transform="translate(-64.98 -152.14)"/><path class="cls-2" d="M649.7,285.52a4.38,4.38,0,0,0-2.08.5,2,2,0,0,0-.93,1.94,2.48,2.48,0,0,0,.54,1.65,1.64,1.64,0,0,0,1.32.65,7.76,7.76,0,0,0,2.75-.5c.91-.33,1.64-.62,2.2-.86l.06-3.55Zm4,6.88c-.84.59-1.8,1.21-2.89,1.87a7.3,7.3,0,0,1-3.79,1,7.89,7.89,0,0,1-5.16-1.68,6.34,6.34,0,0,1-2.05-5.19,5.48,5.48,0,0,1,2.4-4.95,11.9,11.9,0,0,1,6.25-1.69l5-.18V279.6c0-1.39-.22-2.24-.68-2.55a3.2,3.2,0,0,0-1.87-.48,17.25,17.25,0,0,0-3.43.36c-1.19.24-2.61.61-4.27,1.12l-2.08-5.33a35.63,35.63,0,0,1,5.37-1.69,23.49,23.49,0,0,1,5.06-.56,11.6,11.6,0,0,1,3.92.62,8.13,8.13,0,0,1,2.86,1.69A6.71,6.71,0,0,1,660,275.3a8.27,8.27,0,0,1,.58,3.05v16.36H653.7Z" transform="translate(-64.98 -152.14)"/><path class="cls-2" d="M684.8,293.85a15.6,15.6,0,0,1-2.13.83,12.43,12.43,0,0,1-2.23.47,19.63,19.63,0,0,1-2.52.15,13.94,13.94,0,0,1-5.37-1,12.1,12.1,0,0,1-4-2.62,10.74,10.74,0,0,1-2.44-3.79,12.35,12.35,0,0,1-.84-4.59,14.43,14.43,0,0,1,.86-5.07,11.55,11.55,0,0,1,6.42-6.79,12.89,12.89,0,0,1,5.17-1,14.77,14.77,0,0,1,4.26.59,22.93,22.93,0,0,1,4,1.66l-2.49,4.51a16,16,0,0,0-3-1.16,10.87,10.87,0,0,0-2.78-.33,4.73,4.73,0,0,0-3.77,1.81,8.08,8.08,0,0,0-1.51,5.31,7.34,7.34,0,0,0,1.57,4.89,5.61,5.61,0,0,0,4.53,1.86,10.47,10.47,0,0,0,3.09-.38,24.83,24.83,0,0,0,2.9-1.22l2.49,4.63c-.79.47-1.54.87-2.25,1.21" transform="translate(-64.98 -152.14)"/><path class="cls-2" d="M708,279.54c0-1.43-.21-2.34-.62-2.73a2.15,2.15,0,0,0-1.55-.59,6.51,6.51,0,0,0-1.37.2,15.41,15.41,0,0,0-1.72.54l-1.7.65c-.54.22-1,.41-1.34.57v16.53h-7.17v-38h6.87v17.07q1.9-1.07,3.92-2.16a8.62,8.62,0,0,1,4.26-1.1,7,7,0,0,1,5.59,2.34,9.05,9.05,0,0,1,2,6.08v15.82H708Z" transform="translate(-64.98 -152.14)"/><polygon class="cls-2" points="364.33 158.86 368.78 158.86 368.78 189.57 381.64 189.57 381.64 193 364.33 193 364.33 158.86"/><path class="cls-2" d="M466.6,329.78a9.25,9.25,0,0,0-1.49-2.88,7.82,7.82,0,0,0-2.27-2,5.62,5.62,0,0,0-2.88-.74,5.3,5.3,0,0,0-2.82.74,7.06,7.06,0,0,0-2.12,2,8.94,8.94,0,0,0-1.32,2.93,14.27,14.27,0,0,0-.44,3.55,11.49,11.49,0,0,0,.53,3.56,9.66,9.66,0,0,0,1.44,2.89,7,7,0,0,0,2.2,1.93,5.83,5.83,0,0,0,2.88.71,5.46,5.46,0,0,0,2.85-.74,6.54,6.54,0,0,0,2.14-2,9.52,9.52,0,0,0,1.36-3,13.32,13.32,0,0,0,.47-3.54,11.12,11.12,0,0,0-.53-3.42m4.11,8.19a12.92,12.92,0,0,1-2.38,4,11.48,11.48,0,0,1-3.61,2.75,10,10,0,0,1-4.58,1,10.36,10.36,0,0,1-4.56-1,11.26,11.26,0,0,1-3.58-2.63,11.55,11.55,0,0,1-2.35-3.92,13.6,13.6,0,0,1-.84-4.79,13.29,13.29,0,0,1,.84-4.69,12.64,12.64,0,0,1,2.35-4,11.42,11.42,0,0,1,3.61-2.78,9.89,9.89,0,0,1,4.53-1,10.09,10.09,0,0,1,4.55,1,11.32,11.32,0,0,1,3.64,2.78,13.41,13.41,0,0,1,2.38,4,12.36,12.36,0,0,1,.86,4.54,13.06,13.06,0,0,1-.86,4.74" transform="translate(-64.98 -152.14)"/><path class="cls-2" d="M491.26,345.16a14.38,14.38,0,0,1-4.33.57,11.3,11.3,0,0,1-4.74-.94,10.57,10.57,0,0,1-3.53-2.59,11.12,11.12,0,0,1-2.22-3.79,13.41,13.41,0,0,1-.78-4.59,16.67,16.67,0,0,1,.78-5.22,12.1,12.1,0,0,1,2.19-4.08,9.9,9.9,0,0,1,3.44-2.68,10.45,10.45,0,0,1,4.5-.94,12.61,12.61,0,0,1,4.09.64A19.11,19.11,0,0,1,494,323l-1.6,2.77a27,27,0,0,0-2.72-1.13,9.8,9.8,0,0,0-3.15-.47,5.68,5.68,0,0,0-4.95,2.54,11.74,11.74,0,0,0-1.75,6.74,12.49,12.49,0,0,0,.48,3.5,8.67,8.67,0,0,0,1.42,2.87,6.92,6.92,0,0,0,2.37,1.95,7.28,7.28,0,0,0,3.32.72,12.65,12.65,0,0,0,1.87-.13,7.93,7.93,0,0,0,1.51-.35,11.74,11.74,0,0,0,1.36-.56c.44-.22.91-.47,1.43-.75l1.42,2.76a17.33,17.33,0,0,1-3.73,1.71" transform="translate(-64.98 -152.14)"/><path class="cls-2" d="M508.09,334.89a13.91,13.91,0,0,0-1.78.26,7.15,7.15,0,0,0-1.81.67,4.15,4.15,0,0,0-1.42,1.16,2.78,2.78,0,0,0-.56,1.79,3.52,3.52,0,0,0,1,2.78,3.72,3.72,0,0,0,2.57.86,5.68,5.68,0,0,0,1.64-.29,18.22,18.22,0,0,0,1.83-.72c.61-.28,1.18-.56,1.69-.84l1.36-.77v-5.14Zm4.68,7.7a42.81,42.81,0,0,1-3.82,2.14,9.66,9.66,0,0,1-4.3.95,5.62,5.62,0,0,1-2.28-.48,6,6,0,0,1-1.93-1.33,6.55,6.55,0,0,1-1.33-2.11,7.42,7.42,0,0,1-.51-2.84,5.85,5.85,0,0,1,.71-2.88,7,7,0,0,1,1.9-2.16,9.06,9.06,0,0,1,2.82-1.39,14.17,14.17,0,0,1,3.41-.62l5.15-.24V329c0-1.81-.34-3.06-1-3.74a4,4,0,0,0-2.94-1,12.25,12.25,0,0,0-3.58.5c-1.13.34-2.24.72-3.35,1.16l-1.19-3a32.46,32.46,0,0,1,4.21-1.37,18.52,18.52,0,0,1,4.57-.57,8.13,8.13,0,0,1,3.23.59,6.45,6.45,0,0,1,2.31,1.63,7.11,7.11,0,0,1,1.39,2.43,9.14,9.14,0,0,1,.47,3v16.54h-3.91Z" transform="translate(-64.98 -152.14)"/><polygon class="cls-2" points="459.17 154.95 463.26 154.95 463.26 193 459.17 193 459.17 176.32 459.17 154.95"/><path class="cls-2" d="M557.17,332.63v-.82l9.48-10.91,3.62,1.72-8.66,9.6,9.55,12L567.31,346Zm-5-25.54h4.09v38.05h-4.09Z" transform="translate(-64.98 -152.14)"/><path class="cls-2" d="M592.62,329.76a6.6,6.6,0,0,0-.89-3.86,3.24,3.24,0,0,0-2.79-1.21,5.13,5.13,0,0,0-1.81.41,20.29,20.29,0,0,0-2.13,1c-.73.39-1.44.79-2.11,1.2s-1.22.74-1.66,1v16.86h-4.08V321.79h3.91v3c.75-.43,1.5-.88,2.25-1.33a25.74,25.74,0,0,1,2.31-1.25,16.6,16.6,0,0,1,2.43-.92,9.35,9.35,0,0,1,2.61-.35,5.35,5.35,0,0,1,4.38,2,9.14,9.14,0,0,1,1.67,5.9v16.24h-4.09Z" transform="translate(-64.98 -152.14)"/><path class="cls-2" d="M621.07,329.78a9.27,9.27,0,0,0-1.5-2.88,7.66,7.66,0,0,0-2.26-2,5.62,5.62,0,0,0-2.88-.74,5.3,5.3,0,0,0-2.82.74,7,7,0,0,0-2.12,2,8.94,8.94,0,0,0-1.32,2.93,13.81,13.81,0,0,0-.44,3.55,11.79,11.79,0,0,0,.53,3.56,9.88,9.88,0,0,0,1.43,2.89,7,7,0,0,0,2.21,1.93,5.8,5.8,0,0,0,2.88.71,5.46,5.46,0,0,0,2.85-.74,6.67,6.67,0,0,0,2.15-2,10.24,10.24,0,0,0,1.35-3,13.32,13.32,0,0,0,.47-3.54,11.12,11.12,0,0,0-.53-3.42m4.11,8.19a12.94,12.94,0,0,1-2.39,4,11.32,11.32,0,0,1-3.6,2.75,10,10,0,0,1-4.58,1,10.44,10.44,0,0,1-4.57-1,11.33,11.33,0,0,1-3.57-2.63,11.71,11.71,0,0,1-2.35-3.92,13.6,13.6,0,0,1-.84-4.79,13.29,13.29,0,0,1,.84-4.69,12.83,12.83,0,0,1,2.35-4,11.31,11.31,0,0,1,3.61-2.78,9.92,9.92,0,0,1,4.53-1,10.09,10.09,0,0,1,4.55,1,11.17,11.17,0,0,1,3.63,2.78,13.43,13.43,0,0,1,2.39,4,12.36,12.36,0,0,1,.86,4.54,13.06,13.06,0,0,1-.86,4.74" transform="translate(-64.98 -152.14)"/><polygon class="cls-2" points="585.67 193 580.51 174.99 575.06 193 569.9 193 563.38 169.65 567.29 168.94 572.62 189.45 578.55 169.65 582.94 169.65 588.63 189.45 594.56 168.94 598.35 169.89 590.82 193 585.67 193"/><polygon class="cls-2" points="604.34 154.95 608.43 154.95 608.43 193 604.34 193 604.34 173.48 604.34 154.95"/><path class="cls-2" d="M694.63,327.92a8.35,8.35,0,0,0-.92-1.87,4.4,4.4,0,0,0-1.45-1.33,4.5,4.5,0,0,0-2.2-.5,5,5,0,0,0-4.39,2.34,10,10,0,0,0-1.59,5.78l11.2-2.32c-.2-.71-.42-1.41-.65-2.1m2.1,16.75a13.69,13.69,0,0,1-5.78,1.06,10.32,10.32,0,0,1-4.56-1,10.89,10.89,0,0,1-3.44-2.61,11.43,11.43,0,0,1-2.19-3.8,13.05,13.05,0,0,1-.77-4.47,18.62,18.62,0,0,1,.65-5.07,13.16,13.16,0,0,1,1.89-4.09,9.19,9.19,0,0,1,3.12-2.76,8.88,8.88,0,0,1,4.29-1,9.58,9.58,0,0,1,3.85.71,8,8,0,0,1,2.85,2,12.08,12.08,0,0,1,2,3.05,19.4,19.4,0,0,1,1.27,3.88l-1.78,2.26-13.75,2.31a10,10,0,0,0,2.16,5.16,6.13,6.13,0,0,0,4.89,2,10.18,10.18,0,0,0,4.36-.83,21.85,21.85,0,0,0,2.94-1.66l1.6,2.9a26.73,26.73,0,0,1-3.59,2" transform="translate(-64.98 -152.14)"/><path class="cls-2" d="M718.54,324.72a8.43,8.43,0,0,0-2.81-.5,6.55,6.55,0,0,0-3.11.71,6.37,6.37,0,0,0-2.2,1.92,9.2,9.2,0,0,0-1.3,2.85,13,13,0,0,0-.45,3.47,18.4,18.4,0,0,0,.3,3.38,8.39,8.39,0,0,0,1,2.81,5.44,5.44,0,0,0,2,1.93,7.09,7.09,0,0,0,3.38.71,5.71,5.71,0,0,0,3.15-.92c.94-.61,1.83-1.23,2.66-1.87V325.76c-.83-.36-1.73-.7-2.7-1m2.88,17.93a23,23,0,0,1-3,2,7.88,7.88,0,0,1-3.74.8,9.52,9.52,0,0,1-4.12-.89,9.63,9.63,0,0,1-3.2-2.46,11.25,11.25,0,0,1-2.07-3.77,14.73,14.73,0,0,1-.74-4.8,14.14,14.14,0,0,1,.8-4.77,12.53,12.53,0,0,1,2.25-4A10.76,10.76,0,0,1,716,321a9.19,9.19,0,0,1,2.73.42c.91.28,1.76.57,2.55.89V307.09h4.09v38.05h-3.91Z" transform="translate(-64.98 -152.14)"/><path class="cls-2" d="M744.92,325.31a4.32,4.32,0,0,0-3.52-1.45,4.45,4.45,0,0,0-3.59,1.51,6,6,0,0,0-1.22,4.12,6.57,6.57,0,0,0,1.37,4.18,4.36,4.36,0,0,0,3.56,1.57,4.17,4.17,0,0,0,3.43-1.63,7.44,7.44,0,0,0,0-8.3M748.78,350a5.58,5.58,0,0,0-1.53-1.36,9.85,9.85,0,0,0-1.94-.92c-.69-.24-1.29-.43-1.8-.59l-2.88-.89-2.77,1.24a11.63,11.63,0,0,0-3.65,2.4,4.38,4.38,0,0,0-1.35,3.12,3.69,3.69,0,0,0,.59,2.07,5.33,5.33,0,0,0,1.59,1.54,7.7,7.7,0,0,0,2.26,1,10.33,10.33,0,0,0,2.62.32,13,13,0,0,0,3.53-.47,11.9,11.9,0,0,0,3-1.27,7.26,7.26,0,0,0,2.12-1.9,3.92,3.92,0,0,0,.8-2.34,3.1,3.1,0,0,0-.62-1.93m3.26,5.78a10.37,10.37,0,0,1-3.24,2.93,15,15,0,0,1-4.43,1.7,22.84,22.84,0,0,1-4.8.53,16.27,16.27,0,0,1-3.78-.45,11.76,11.76,0,0,1-3.42-1.36,7.5,7.5,0,0,1-2.48-2.37,6.21,6.21,0,0,1-.94-3.47,6.53,6.53,0,0,1,1.89-4.77,12.51,12.51,0,0,1,4.63-2.93l1.84-.66L733,343.42V340.1l5.39-2.37a10.67,10.67,0,0,1-4.24-3,8.05,8.05,0,0,1-1.69-5.37,7.84,7.84,0,0,1,.72-3.37,8.28,8.28,0,0,1,1.92-2.67,8.79,8.79,0,0,1,2.85-1.75,9.49,9.49,0,0,1,3.46-.63,11.42,11.42,0,0,1,2,.19,5.45,5.45,0,0,1,1.84.65H753v3.43h-4a6.11,6.11,0,0,1,1,1.7,6.3,6.3,0,0,1,.39,2.34,8.58,8.58,0,0,1-1.87,5.89,12.42,12.42,0,0,1-4.89,3.29l-7.18,2.91,10,3a16.12,16.12,0,0,1,2.63,1.07,9.52,9.52,0,0,1,2.22,1.54,6.88,6.88,0,0,1,1.48,2,5.92,5.92,0,0,1,.54,2.53,7.11,7.11,0,0,1-1.27,4.26" transform="translate(-64.98 -152.14)"/><path class="cls-2" d="M772,327.92a7.94,7.94,0,0,0-.92-1.87,4.31,4.31,0,0,0-1.45-1.33,4.46,4.46,0,0,0-2.19-.5,5,5,0,0,0-4.39,2.34,10,10,0,0,0-1.6,5.78l11.2-2.32c-.19-.71-.41-1.41-.65-2.1m2.11,16.75a13.72,13.72,0,0,1-5.78,1.06,10.36,10.36,0,0,1-4.57-1,11,11,0,0,1-3.44-2.61,11.43,11.43,0,0,1-2.19-3.8,13.3,13.3,0,0,1-.77-4.47,18.62,18.62,0,0,1,.65-5.07,13,13,0,0,1,1.9-4.09A9.25,9.25,0,0,1,763,322a8.92,8.92,0,0,1,4.3-1,9.58,9.58,0,0,1,3.85.71,8.11,8.11,0,0,1,2.85,2,11.79,11.79,0,0,1,2,3.05,20.07,20.07,0,0,1,1.28,3.88l-1.78,2.26-13.75,2.31a9.82,9.82,0,0,0,2.16,5.16,6.13,6.13,0,0,0,4.89,2,10.21,10.21,0,0,0,4.36-.83,21.68,21.68,0,0,0,2.93-1.66l1.6,2.9a26.52,26.52,0,0,1-3.58,2" transform="translate(-64.98 -152.14)"/><polygon class="cls-3" points="177.56 150.09 177.97 150.09 177.97 150.08 177.56 150.09"/><polygon class="cls-3" points="124.5 150.09 124.99 150.09 124.5 150.07 124.5 150.09"/><path class="cls-4" d="M153.32,345.07a17.47,17.47,0,0,1-1.75.5c-.62.15-1.28.28-1.95.38a13.44,13.44,0,0,1-2,.15,12.59,12.59,0,0,1-4.18-.67,8.28,8.28,0,0,1-3.21-2.09,9.61,9.61,0,0,1-2.07-3.57,15.86,15.86,0,0,1-.74-5.12,13.4,13.4,0,0,1,.76-4.64,10.1,10.1,0,0,1,2.16-3.56,9.42,9.42,0,0,1,3.39-2.29,11.79,11.79,0,0,1,4.47-.81,11.92,11.92,0,0,1,2.87.39,12.68,12.68,0,0,1,2.87,1.05l-1.57,3.33a21.26,21.26,0,0,0-2.39-.77,7.91,7.91,0,0,0-1.86-.24,6.23,6.23,0,0,0-2,.34,5.07,5.07,0,0,0-1.91,1.17,6.16,6.16,0,0,0-1.45,2.24,9.81,9.81,0,0,0-.56,3.56,14.94,14.94,0,0,0,.43,3.91,7,7,0,0,0,1.17,2.49,4.16,4.16,0,0,0,1.73,1.32,5.79,5.79,0,0,0,2.15.39c.5,0,.94,0,1.32,0l1.08-.14V335h4.55v9.53a14.65,14.65,0,0,1-1.38.55" transform="translate(-64.98 -152.14)"/><path class="cls-4" d="M179.1,328.36a2.8,2.8,0,0,0-2.3-.88h-1.69v5.67h1.69a3.33,3.33,0,0,0,2.22-.68,2.53,2.53,0,0,0,.79-2,3.24,3.24,0,0,0-.71-2.09M177,336.68h-1.84v8.89h-4.65V324h6.34a10.06,10.06,0,0,1,3.36.51,7.51,7.51,0,0,1,2.42,1.35,5.38,5.38,0,0,1,1.47,2,6,6,0,0,1,.49,2.42,5.28,5.28,0,0,1-.34,1.91,6.17,6.17,0,0,1-.85,1.54,6.57,6.57,0,0,1-1.12,1.17,10.65,10.65,0,0,1-1.19.82l5,9.65-5.21.6Z" transform="translate(-64.98 -152.14)"/><path class="cls-4" d="M213.31,332.72a10,10,0,0,0-.62-2.65,5.48,5.48,0,0,0-1.44-2.08,3.78,3.78,0,0,0-2.61-.85,3.63,3.63,0,0,0-2.34.71,4.69,4.69,0,0,0-1.3,1.77,7.62,7.62,0,0,0-.59,2.25,20,20,0,0,0-.13,2.21c0,.76,0,1.61.13,2.58a9.77,9.77,0,0,0,.62,2.7,5.6,5.6,0,0,0,1.43,2.12,3.65,3.65,0,0,0,2.59.87,3.53,3.53,0,0,0,2.34-.74,4.58,4.58,0,0,0,1.33-1.8,7.84,7.84,0,0,0,.59-2.31,20.81,20.81,0,0,0,.13-2.25c0-.75,0-1.59-.13-2.53m4.3,6.59a11.24,11.24,0,0,1-2,3.6,9.2,9.2,0,0,1-3,2.35,8.53,8.53,0,0,1-3.79.84,8.48,8.48,0,0,1-7.17-3.49A10.71,10.71,0,0,1,200,339a16.69,16.69,0,0,1-.54-4.26,14.74,14.74,0,0,1,.69-4.6,11,11,0,0,1,2-3.65,9.15,9.15,0,0,1,3-2.38,8.41,8.41,0,0,1,3.79-.86,9,9,0,0,1,4.26.95,8.63,8.63,0,0,1,2.93,2.56,11.43,11.43,0,0,1,1.71,3.68,16.63,16.63,0,0,1,.56,4.3,14.37,14.37,0,0,1-.71,4.58" transform="translate(-64.98 -152.14)"/><path class="cls-4" d="M250.13,341.67a7.13,7.13,0,0,1-1.91,2.38,8.55,8.55,0,0,1-2.71,1.47,9.9,9.9,0,0,1-3.09.5,10.32,10.32,0,0,1-3.4-.54,7.78,7.78,0,0,1-2.68-1.54,7.07,7.07,0,0,1-1.77-2.4,7.54,7.54,0,0,1-.63-3.17V324h4.65v14.54a3.88,3.88,0,0,0,1,2.64,4.06,4.06,0,0,0,5.59.05,3.88,3.88,0,0,0,1-2.77V324h4.65v14.42a7.1,7.1,0,0,1-.73,3.3" transform="translate(-64.98 -152.14)"/><path class="cls-4" d="M277,328.32a3.37,3.37,0,0,0-2.46-.76H273v6.64h1.12a3.57,3.57,0,0,0,2.73-.94,3.66,3.66,0,0,0,.88-2.59,3.23,3.23,0,0,0-.77-2.35m5,5.13a6.58,6.58,0,0,1-1.69,2.31,7.66,7.66,0,0,1-2.61,1.48,10.21,10.21,0,0,1-3.36.52H273v7.81h-4.65V324h6.15a9.45,9.45,0,0,1,5.89,1.67,5.69,5.69,0,0,1,2.18,4.79,7.43,7.43,0,0,1-.6,3" transform="translate(-64.98 -152.14)"/><path class="cls-4" d="M282.13,248.9H253.59a.66.66,0,0,0-.66.66v48.1a.67.67,0,0,0,.66.66h9.32a.66.66,0,0,0,.66-.66V277.73H279a.66.66,0,0,0,.66-.66V269.8a.65.65,0,0,0-.66-.65H263.57V257.48h18.56a.66.66,0,0,0,.66-.66v-7.26a.66.66,0,0,0-.66-.66" transform="translate(-64.98 -152.14)"/><path class="cls-4" d="M233.79,248.9H223.13a.68.68,0,0,0-.63.46l-10.92,34.12-10.92-34.12a.65.65,0,0,0-.62-.46H189.12a.66.66,0,0,0-.66.61l-3.68,48.1a.67.67,0,0,0,.17.49.66.66,0,0,0,.48.22h9.08a.66.66,0,0,0,.66-.62l1.66-30.18,9.63,30.34a.67.67,0,0,0,.63.46h8.14a.66.66,0,0,0,.62-.46l9.8-30.26,1.5,30.09a.66.66,0,0,0,.65.63h9.33a.65.65,0,0,0,.66-.7l-3.34-48.11a.66.66,0,0,0-.66-.61" transform="translate(-64.98 -152.14)"/><path class="cls-4" d="M176.7,248.9H138.12a.65.65,0,0,0-.65.66v7.52a.65.65,0,0,0,.65.66H152v39.92a.67.67,0,0,0,.66.66h9.32a.66.66,0,0,0,.66-.66V257.74h14.1a.65.65,0,0,0,.65-.66v-7.52a.65.65,0,0,0-.65-.66" transform="translate(-64.98 -152.14)"/></svg>