<?xml version="1.0" encoding="utf-8"?>
<!-- Generator: Adobe Illustrator 26.3.1, SVG Export Plug-In . SVG Version: 6.00 Build 0)  -->
<svg version="1.1" id="layer" xmlns="http://www.w3.org/2000/svg" xmlns:xlink="http://www.w3.org/1999/xlink" x="0px" y="0px"
	 viewBox="0 0 600.2 110.7" style="enable-background:new 0 0 600.2 110.7;" xml:space="preserve">
<style type="text/css">
	.st0{fill:#FFFFFF;}
</style>
<path class="st0" d="M72.2,92.4c1-5.9-1.1-12-5.6-16c-3.2-3-7.5-4.7-11.9-4.7c-2.6,0-5.1-0.6-7.4-1.8l0,0c-3-1.6-5.4-4.1-7-7.1l0,0
	c0.9-2.3,1.3-4.8,1.3-7.5c0,7.3,5.8,13.2,13,13.2h0.3c7.1-0.1,12.8-6,12.8-13.2c0-2.6,0.5-5.1,1.3-7.5l0,0c1.4-3.7,3.8-7,7-9.4
	c3.9-3,8.7-4.4,13.5-4.2c-3.4-5.8-8.2-10.7-14-14.2c0,0.3,0,0.7,0,1c0,4.6-1.5,9-4.2,12.7c-0.8-0.7-1.7-1.3-2.6-1.8
	c2.4-3.1,3.6-6.9,3.6-10.8c0-2.3-0.4-4.6-1.3-6.8C68.4,7.9,62.3,3.4,55.1,3.2h-0.5h-0.5c-4.4,0-8.7,0.6-12.9,1.8
	C23.5,9.8,9.6,23.9,4.9,41.8c-3,3.7-4.8,8.2-4.9,13C0.3,24.7,24.3,0.3,54.1,0h0.6c0.3,0,0.5,0,0.8,0c29.6,0.5,53.5,24.7,53.8,54.8
	c0,0.2,0,0.4,0,0.6s0,0.4,0,0.6c-0.1,4.8-1.8,9.3-4.9,13c-2.8,3.4-6.7,5.9-11,6.9c-1.6,0.4-3.3,0.6-4.9,0.6c-4.5,0-8.9-1.5-12.5-4.2
	c-1.3,1.8-2.9,3.3-4.6,4.7l0,0c2.9,3.9,4.4,8.8,4.1,13.7c5.8-3.5,10.6-8.4,14-14.2c1.3-0.1,2.6-0.3,3.9-0.6
	c-4.1,8-10.6,14.5-18.5,18.7c-6.2,3.3-13.2,5-20.2,5c-3.1,0-6-1.5-7.8-3.9c-1.3-1.8-2-3.9-2-6.1c0-3,1.4-5.8,3.5-7.6
	c2,0.5,4.2,0.8,6.4,0.8c-3.7,0-6.8,3.1-6.8,6.9s3,6.9,6.8,6.9h0.1c3.7,0,6.8-3.1,6.8-6.9s-3-6.9-6.8-6.9c-5,0-9.8-1.4-14.1-4
	c-0.9-0.6-1.8-1.2-2.6-1.8c-1.8-1.4-3.3-3-4.7-4.7c0.8-0.6,1.6-1.3,2.4-2.1c1.9,2.5,4.3,4.7,7.1,6.3c3.6,2.1,7.7,3.2,11.9,3.2
	c2.4,0,4.7,0.9,6.4,2.4c2.1,1.8,3.5,4.6,3.5,7.6c0,2.2-0.7,4.3-2,6.1c3.3-0.7,6.5-1.7,9.5-3.2L72.2,92.4L72.2,92.4z M94.5,47.4
	c-0.6-3.4-1.7-6.6-3.2-9.7c-4.8-0.8-9.7,0.5-13.5,3.4c-4.4,3.4-7,8.7-7,14.3c0,2.7-0.6,5.2-1.8,7.5l0,0c-1.5,3-4,5.5-6.9,7.1l0,0
	l0,0c2.7,1,5.1,2.6,7.2,4.6c2.5-1.9,4.6-4.4,6.1-7.1c2.1-3.7,3.2-7.8,3.2-12.1c0-2.5,0.9-4.7,2.4-6.5c1.9-2.2,4.6-3.5,7.5-3.5
	C90.7,45.4,92.8,46.1,94.5,47.4z M95.2,55.1c-0.1-3.6-3.1-6.5-6.8-6.6c-3.8,0-6.8,3.1-6.8,6.8c0,0.1,0,0.2,0,0.2
	c0.1,3.7,3.1,6.6,6.8,6.6c3.8,0,6.8-3.1,6.8-6.8C95.2,55.3,95.2,55.2,95.2,55.1z M81,61.9c-0.7,2.7-1.7,5.4-3.2,7.8
	c3.8,3,8.7,4.2,13.5,3.4c1.3-0.2,2.6-0.6,3.9-1.1c6.5-2.7,10.8-9,11-16.1V55c0-4.4-0.6-8.8-1.8-13.1C99.7,24.1,85.8,10,68.2,5.1
	c3.4,2.9,5.7,6.8,6.8,11.1v0.1c9.2,4.9,16.3,12.9,20.2,22.6c2.1,5.1,3.2,10.7,3.2,16.6c0,3.2-1.5,6.1-3.9,7.9
	c-1.7,1.3-3.8,2.1-6,2.1C85.5,65.4,82.8,64,81,61.9z M53.9,110.7C24.3,110.2,0.4,85.9,0.1,55.9v-0.6v-0.6c0.1-4.8,1.8-9.3,4.9-13
	c2.8-3.4,6.7-5.8,11-6.9c1.6-0.4,3.3-0.6,4.9-0.6c4.5,0,8.9,1.5,12.5,4.2c1.3-1.8,2.9-3.3,4.6-4.7c-2.9-3.9-4.4-8.8-4.2-13.7
	c-5.8,3.5-10.6,8.4-14,14.2c-1.3,0.1-2.6,0.3-3.9,0.6c4.1-8,10.6-14.5,18.5-18.7c6.2-3.3,13.2-5,20.2-5c3.1,0,6,1.5,7.8,3.9
	c1.3,1.7,2,3.8,2,6.1c0,3.1-1.4,5.8-3.5,7.6c-2.1-0.5-4.2-0.8-6.4-0.8c3.7,0,6.8-3.1,6.8-6.9s-3-6.9-6.8-6.9h-0.1
	c-3.7,0-6.8,3.1-6.8,6.9s3,6.9,6.8,6.9c5,0,9.8,1.4,14.1,4c0.9,0.6,1.8,1.2,2.6,1.8c1.7,1.4,3.3,3,4.7,4.7c-0.8,0.6-1.6,1.3-2.4,2.1
	c-1.9-2.5-4.3-4.7-7.1-6.3c-3.6-2.1-7.7-3.2-11.9-3.2c-2.3,0-4.6-0.9-6.4-2.4c-2.2-1.9-3.5-4.7-3.5-7.6c0-2.3,0.8-4.4,2-6.1
	c-3.3,0.7-6.6,1.8-9.6,3.2c-1,5.9,1.1,12,5.6,16c3.2,3,7.5,4.7,11.9,4.7c2.6,0,5.1,0.6,7.4,1.8l0,0c3,1.6,5.4,4.1,7,7.1
	c-0.9,2.4-1.4,4.9-1.3,7.5c0-7.3-5.8-13.2-13-13.2h-0.1c-7.1,0.1-12.8,6-12.8,13.2c0,2.6-0.5,5.1-1.3,7.5l0,0c-1.4,3.7-3.8,7-7,9.4
	c-3.9,3-8.7,4.4-13.5,4.2c3.4,5.8,8.2,10.7,14,14.2c-0.2-4.9,1.2-9.7,4.1-13.6c0.8,0.7,1.7,1.3,2.6,1.8c-2.4,3.1-3.6,6.9-3.6,10.8
	c0,2.3,0.4,4.6,1.3,6.8c2.6,6.4,8.7,10.9,15.9,11.1H55c4.4,0,8.7-0.6,12.9-1.8c17.7-4.8,31.6-18.9,36.3-36.8c3-3.7,4.8-8.2,4.9-13
	c-0.3,30.1-24.3,54.5-54.1,54.8h-0.6h-0.6C54.1,110.7,53.9,110.7,53.9,110.7z M41.2,105.7c-3.4-2.9-5.7-6.8-6.8-11.1c0,0,0,0,0-0.1
	c-9.2-4.9-16.3-12.9-20.2-22.6C12.1,66.6,11,61,11,55.3c0-3.2,1.5-6.1,3.9-7.9c1.7-1.3,3.7-2.1,6-2.1c3,0,5.7,1.4,7.5,3.5
	c0.7-2.8,1.7-5.4,3.2-7.8c-3.8-3-8.7-4.2-13.5-3.4c-1.4,0.2-2.6,0.6-3.9,1.1c-6.5,2.7-10.8,9-11,16.1c0,0.2,0,0.3,0,0.5v0.5
	c0,4.4,0.6,8.8,1.8,13.1C9.8,86.8,23.6,100.9,41.2,105.7z M18.1,73.1c4.8,0.8,9.7-0.5,13.5-3.4c4.4-3.4,7-8.7,7-14.3
	c0-2.7,0.6-5.2,1.8-7.5l0,0c1.5-3,4-5.5,6.9-7.1h-0.1c-2.7-1-5.1-2.6-7.2-4.6c-2.5,1.9-4.6,4.4-6.1,7.1c-2.1,3.7-3.2,7.8-3.2,12.1
	c0,2.5-0.9,4.7-2.4,6.5c-1.9,2.2-4.6,3.5-7.5,3.5c-2.3,0-4.3-0.8-6-2.1C15.6,66.7,16.7,70,18.1,73.1z M14.2,55.7
	c0.2,3.6,3.1,6.6,6.8,6.6c3.8,0,6.8-3.1,6.8-6.8c0-0.1,0-0.2,0-0.2c-0.1-3.7-3.1-6.6-6.8-6.6c-3.8,0-6.8,3.1-6.8,6.9
	C14.2,55.5,14.2,55.6,14.2,55.7L14.2,55.7z M153.2,26.4h15l14,38.2h0.2l13.8-38.2h15v53.8h-9.5V37h-0.1l-16.3,43.2h-6.7L162.5,37
	h-0.1v43.2h-9.1L153.2,26.4L153.2,26.4z M237.4,26.4H273v8.4h-26v13.7h24.7v8h-24.8v15.2h27.4v8.5h-37L237.4,26.4L237.4,26.4z
	 M315.4,49.6c1.4,0,2.7-0.1,4.1-0.3c1.3-0.2,2.5-0.6,3.7-1.1c1.1-0.6,2-1.4,2.7-2.4s1.1-2.4,1.1-4c0-1.5-0.3-2.7-1-3.6
	s-1.5-1.7-2.5-2.2c-1.1-0.6-2.2-1-3.5-1.1c-1.2-0.2-2.5-0.3-3.8-0.3h-8.7v15.1C307.6,49.6,315.4,49.6,315.4,49.6z M298,26.4h18.7
	c2.5,0,5,0.3,7.4,0.8c2.3,0.5,4.4,1.4,6.3,2.6c1.8,1.2,3.4,2.9,4.4,4.8c1.1,2,1.7,4.4,1.7,7.2c0,3.9-1.1,7.1-3.3,9.5
	c-2.2,2.5-5.2,4.1-9,5l14.3,23.8H327l-12.4-22.8h-7v22.8H298V26.4L298,26.4z M398.9,39c-1.4-1.9-3.3-3.4-5.5-4.2
	c-2.1-0.9-4.4-1.3-6.7-1.3c-2.6,0-5.2,0.5-7.6,1.5c-2.2,1-4.2,2.4-5.9,4.2c-1.7,1.8-3,3.9-3.8,6.2c-0.9,2.5-1.4,5.1-1.3,7.7
	c0,2.9,0.4,5.6,1.3,8s2.1,4.5,3.7,6.3c1.6,1.7,3.5,3.1,5.7,4.1s4.7,1.4,7.5,1.4c2.9,0,5.4-0.6,7.7-1.7c2.1-1.1,4-2.6,5.4-4.5
	l7.7,5.4c-2.3,3-5.3,5.3-8.7,6.9c-3.4,1.6-7.5,2.5-12.1,2.5c-4.2,0-8.1-0.7-11.6-2.1c-3.4-1.3-6.5-3.3-9.1-5.8
	c-2.6-2.6-4.6-5.6-5.9-9c-1.4-3.5-2.1-7.3-2.1-11.5c0-4.3,0.7-8.2,2.2-11.7s3.5-6.4,6.1-8.8c2.7-2.5,5.8-4.4,9.2-5.6
	c5.4-2,11.3-2.5,16.9-1.5c1.9,0.3,3.7,0.8,5.4,1.5c1.7,0.7,3.3,1.5,4.9,2.5c1.5,1,2.8,2.2,3.9,3.6C406.2,33.3,398.9,39,398.9,39z
	 M470.1,60.4c0,3.2-0.6,6.2-1.7,8.8c-1,2.5-2.6,4.8-4.6,6.6c-2,1.8-4.3,3.3-6.8,4.2c-2.7,1-5.7,1.5-8.6,1.5s-5.8-0.5-8.6-1.5
	c-2.5-0.9-4.9-2.4-6.9-4.2c-2-1.9-3.5-4.1-4.6-6.6c-1.1-2.6-1.6-5.5-1.6-8.8v-34h9.6V60c0,1.6,0.2,3.1,0.6,4.7
	c0.4,1.5,1.1,2.9,2,4.1s2.2,2.2,3.7,3s3.5,1.1,5.7,1.1c2.3,0,4.2-0.4,5.7-1.1s2.7-1.7,3.7-3c0.9-1.2,1.6-2.6,2-4.1s0.6-3.1,0.6-4.7
	V26.4h9.6C470.1,26.4,470.1,60.4,470.1,60.4z M513.2,49.6c1.4,0,2.7-0.1,4.1-0.3c1.4-0.2,2.6-0.6,3.7-1.1c1.1-0.6,2-1.4,2.7-2.4
	s1.1-2.4,1.1-4c0-1.5-0.3-2.7-1-3.6c-0.6-0.9-1.5-1.7-2.5-2.2c-1.1-0.6-2.2-1-3.5-1.1c-1.2-0.2-2.5-0.3-3.8-0.3h-8.7v15.1
	C505.4,49.6,513.2,49.6,513.2,49.6z M495.8,26.4h18.7c2.5,0,5,0.3,7.4,0.8c2.3,0.5,4.4,1.4,6.3,2.6c1.8,1.2,3.3,2.8,4.4,4.8
	c1.1,2,1.7,4.4,1.7,7.2c0,3.9-1.1,7.1-3.3,9.5c-2.2,2.5-5.2,4.1-9,5l14.3,23.8h-11.5l-12.4-22.8h-7v22.8h-9.6
	C495.8,80.2,495.8,26.4,495.8,26.4z M570.4,56.9l-20.2-30.4h11.7l13.5,22.6l13.7-22.6h11.1L580,56.9v23.3h-9.6V56.9L570.4,56.9z"/>
</svg>
