<?xml version="1.0" encoding="utf-8"?>
<!-- Generator: Adobe Illustrator 26.3.1, SVG Export Plug-In . SVG Version: 6.00 Build 0)  -->
<svg version="1.1" id="Built_on_SurrealDB" xmlns="http://www.w3.org/2000/svg" xmlns:xlink="http://www.w3.org/1999/xlink" x="0px"
	 y="0px" viewBox="0 0 4561.3 1284.3" style="enable-background:new 0 0 4561.3 1284.3;" xml:space="preserve">
<style type="text/css">
	.st0{fill:#6A7389;}
	.st1{fill:url(#DB_00000035528393022193729170000008894097661667006888_);}
	.st2{fill:#272C39;}
	.st3{fill:url(#Icon_00000056387238491441652380000016687121487637338021_);}
</style>
<g id="Built_on">
	<path class="st0" d="M120,110.1c6.8,9.3,9.9,19.2,9.9,30.9c0,9.9-2.5,18.6-6.8,26.6c-4.9,8-11.8,14.2-20.4,18.6S83.5,193,71.8,193
		H0V0h68c12.4,0,22.9,2.5,31.6,6.8s15.5,10.5,19.8,17.9c4.3,7.4,6.8,15.5,6.8,24.7c0,11.1-2.5,20.4-8,27.8s-13,13-22.3,16.1
		C105.2,95.9,113.8,101.5,120,110.1z M29.1,81h36.5c9.9,0,17.3-2.5,22.3-6.8c5.6-4.9,8-11.8,8-20.4s-2.5-15.5-8-20.4
		c-5.6-4.9-13-7.4-22.3-7.4H29.1V81z M92.2,159.6c5.6-4.9,8.7-12.4,8.7-21.7s-3.1-16.7-9.3-22.3s-14.2-8-24.1-8H29.1V167h39.6
		C79.2,167,86.6,164.6,92.2,159.6z"/>
	<path class="st0" d="M290.8,46.4v144.8h-29.1v-17.3c-4.3,6.2-10.5,10.5-17.9,14.2s-15.5,4.9-24.1,4.9c-11.1,0-21-2.5-30.3-6.8
		c-8.7-4.9-16.1-11.8-21-21s-7.4-20.4-7.4-33.4V46.4h29.1v80.4c0,13,3.1,22.9,9.3,29.7s14.8,10.5,26,10.5s19.8-3.7,26-10.5
		c6.2-6.8,9.9-16.7,9.9-29.7V46.4H290.8z"/>
	<path class="st0" d="M333.4,25.4c-3.1-3.1-4.3-6.2-4.3-10.5s1.2-7.4,4.3-10.5S340.2,0,344,0c4.3,0,7.4,1.2,10.5,4.3
		s4.3,6.2,4.3,10.5s-1.2,7.4-4.3,10.5s-6.2,4.3-10.5,4.3C340.2,29.7,336.5,28.5,333.4,25.4z"/>
	<rect x="329.7" y="46.4" class="st0" width="29.1" height="146.6"/>
	<path class="st0" d="M426.9,0v193h-29.1V0H426.9z"/>
	<path class="st0" d="M499.9,153.4c0,5.6,1.2,9.3,3.7,11.8s6.8,3.7,13,3.7h17.9v24.7h-22.9c-13,0-23.5-3.1-30.3-9.3
		s-10.5-16.1-10.5-30.3V16h29.7v137.3C500.5,153.4,499.9,153.4,499.9,153.4z"/>
	<path class="st0" d="M653.3,183.7c-11.1-6.2-19.2-14.8-25.4-26c-6.2-11.1-9.3-24.1-9.3-38.4s3.1-27.2,9.3-38.4s14.8-19.8,26-26
		s23.5-9.3,37.1-9.3s26,3.1,37.1,9.3s19.8,14.8,26,26s9.3,24.1,9.3,38.4s-3.1,27.2-9.9,38.4c-6.8,11.1-15.5,19.8-26.6,26
		s-23.5,9.3-37.1,9.3C676.2,193,664.4,189.9,653.3,183.7z M710.8,162.1c6.8-3.7,11.8-9.3,16.1-16.1c4.3-7.4,6.2-16.1,6.2-26
		s-1.9-19.2-6.2-26s-9.3-12.4-15.5-16.1c-6.8-3.7-13.6-5.6-21-5.6s-14.8,1.9-21,5.6s-11.8,9.3-15.5,16.1c-3.7,7.4-5.6,16.1-5.6,26
		c0,15.5,3.7,27.2,11.8,35.3c8,8,17.9,12.4,29.7,12.4C697.2,167.6,704.6,165.8,710.8,162.1z"/>
	<path class="st0" d="M893.9,53.2c8.7,4.9,15.5,11.8,21,21c4.9,9.3,7.4,20.4,7.4,33.4v84.8h-29.1V112c0-13-3.1-22.9-9.3-29.7
		s-14.8-10.5-26-10.5s-19.8,3.7-26,10.5S822,99,822,112v80.4h-29.1V48.9H822v16.7c4.9-6.2,11.1-10.5,18.6-13.6s15.5-4.9,24.1-4.9
		C875.4,46.4,885.3,48.9,893.9,53.2z"/>
	<rect x="453.5" y="46.4" class="st0" width="81" height="24.1"/>
</g>
<g>
	
		<linearGradient id="DB_00000139271002213637044270000012144987768764962442_" gradientUnits="userSpaceOnUse" x1="3829.7141" y1="1284.5955" x2="4266.2515" y2="528.4907" gradientTransform="matrix(1 0 0 -1 0 1696.9606)">
		<stop  offset="0" style="stop-color:#FF00A0"/>
		<stop  offset="1" style="stop-color:#9600FF"/>
	</linearGradient>
	<path id="DB" style="fill:url(#DB_00000139271002213637044270000012144987768764962442_);" d="M4490.4,776.2
		c84.5-64.2,39.3-205.8-52.4-238c-20.2-8.3-41.6-11.9-64.2-11.9h-221.3v536.6c13.1,0,251,0,251,0c42.8,0,83.3-15.5,113-44
		C4583.3,954.7,4576.1,823.8,4490.4,776.2z M4259.6,634.6h110.6c28.6,0,52.3,20.2,51.2,50c1.2,28.6-22.6,52.4-51.2,51.2h-110.6
		V634.6z M4397.6,955.9h-138V839.3h138c28.6-1.2,52.4,30.9,51.2,59.5C4450,926.1,4426.2,957.1,4397.6,955.9z M3942.7,546.6
		c-33.3-13.1-70.2-20.2-110.6-20.2h-199.9V1063h199.9c42.8,0,80.9-7.1,114.2-20.2c102.3-39.3,159.4-140.4,158.2-248.7
		C4105.7,685.8,4045,585.8,3942.7,546.6z M3990.3,795.2c1.1,84.5-69.1,161.9-154.7,160.7H3738V634.6h97.6
		C3921.3,633.4,3991.5,711.9,3990.3,795.2z"/>
	<path id="l_00000025403636360595826800000011768100850424527237_" class="st2" d="M3477.1,526.3v536.6h107.1V526.3H3477.1z"/>
	<path class="st2" d="M3429.1,857c0-115.9-94-209.9-209.9-209.9s-209.9,94-209.9,209.9s94,209.9,209.9,209.9
		c37.3,0,72.4-9.8,102.8-26.9v22.8h107.1L3429.1,857C3429.1,857.1,3429.1,857.1,3429.1,857z M3219.2,959.8
		c-56.8,0-102.8-46-102.8-102.8s46-102.8,102.8-102.8S3322,800.2,3322,857S3276,959.8,3219.2,959.8z"/>
	<path class="st2" d="M2751.4,959.8c-43.3,0-80.4-26.8-95.5-64.7h301.9c2.3-12.3,3.4-25.1,3.4-38c0-115.9-94-209.9-209.9-209.9
		s-209.9,94-209.9,209.9s94,209.9,209.9,209.9c92.3,0,170.7-59.6,198.8-142.3h-121.3C2810,946.2,2782.3,959.8,2751.4,959.8z
		 M2751.4,754.3c43.3,0,80.4,26.8,95.5,64.7h-191C2671,781.1,2708.1,754.3,2751.4,754.3z"/>
	<path class="st2" d="M2307.4,856.9v205.7h106.9V856.9c0-56.8,46.1-102.9,102.9-102.9V647C2401.3,647,2307.4,741,2307.4,856.9z"/>
	<path class="st2" d="M2073.5,856.9v205.7h106.9V856.9c0-56.8,46.1-102.9,102.9-102.9V647C2167.4,647,2073.5,741,2073.5,856.9z"/>
	<path class="st2" d="M1918.6,651.2v206.1c-5.9,141.6-199.9,141.6-204.6,0V743.6v-92.5h-107.1v92.5v113.6c0,21.4,3.6,42.8,9.5,63.1
		c27.4,86.9,108.3,146.3,199.9,146.3s172.5-59.4,199.9-146.2c5.9-20.2,9.5-41.6,9.5-63.1V743.6v-92.5L1918.6,651.2L1918.6,651.2z"/>
	<path id="S_00000169540344908778767970000011130257505604909976_" class="st2" d="M1411.9,748.6c-45.1-7.2-98.6-15.6-134.2-44.5
		c-22.6-18.2-13.1-47,10.7-62.8c46.3-30.3,123.4-13.3,138.9,42.1h121.1c0-98.9-104.5-162.9-201.9-161.7
		c-54.7,0-105.7,13.3-144.9,45.8c-47.4,38.6-71.1,112.2-41.5,166.6c48.7,80.8,166.3,79.6,245.8,112.1c21.4,10.9,34.5,23,34.5,45.8
		c0,49.5-43.9,70-93.8,70c-47.4,1.2-83-35-87.8-79.6H1140c3.6,175,232.7,237.8,362.1,133.9c36.8-31.4,57-76,57-124.2
		C1560.2,813.7,1486.7,760.6,1411.9,748.6z"/>
	
		<linearGradient id="Icon_00000039133356316855457110000016692489804097735358_" gradientUnits="userSpaceOnUse" x1="203.3477" y1="1336.0579" x2="636.6956" y2="2086.6387" gradientTransform="matrix(1 0 0 1 0 -916.9607)">
		<stop  offset="0" style="stop-color:#FF00A0"/>
		<stop  offset="1" style="stop-color:#9600FF"/>
	</linearGradient>
	<path id="Icon" style="fill:url(#Icon_00000039133356316855457110000016692489804097735358_);" d="M420,562.2l233.3,129.2v-51.8
		L420,510.7c-34.7,19.2-202.4,111.9-233.3,128.9C215.4,655.5,516.8,822,700,923.2v51.6c-24.9,13.8-280,154.7-280,154.7
		c-69.8-38.5-210.3-116.1-280-154.7V820.1l280,154.7l46.7-25.8L93.3,742.8v257.9L420,1181.1c32.2-17.8,302.8-167.3,326.6-180.5
		V897.5L280,639.6L420,562.2z M93.3,588v103.2l466.6,257.9l-140,77.4L186.6,897.3v51.8L419.9,1078
		c34.7-19.2,202.4-111.9,233.3-128.9c-28.7-15.9-330-182.4-513.2-283.7v-51.6c24.9-13.8,280-154.7,280-154.7
		c69.7,38.6,210.2,116.2,280,154.7v154.7L420,613.8l-46.7,25.8l373.3,206.3V588L420,407.5C387.7,425.4,117.2,574.9,93.3,588z
		 M420,304.4L0,536.5v515.7l420,232.1l420-232V536.5L420,304.4z M793.2,1026.4L420,1232.7L46.7,1026.4V562.3L420,356l373.3,206.3
		L793.2,1026.4z"/>
</g>
</svg>
