<?xml version="1.0" encoding="utf-8"?>
<!-- Generator: Adobe Illustrator 25.4.1, SVG Export Plug-In . SVG Version: 6.00 Build 0)  -->
<svg version="1.1" id="SurrealDB" xmlns="http://www.w3.org/2000/svg" xmlns:xlink="http://www.w3.org/1999/xlink" x="0px" y="0px"
	 viewBox="0 0 736.6 207.6" style="enable-background:new 0 0 736.6 207.6;" xml:space="preserve">
<style type="text/css">
	.st0{fill:url(#DB_00000085939725588941730010000007292459337910041249_);}
	.st1{fill:#272C39;}
	.st2{fill:url(#Icon_00000148629936399274165210000004914187593682561972_);}
	.st3{fill:#6A7389;}
</style>
<g id="SurrealDB_00000138551226888156890820000007189919268752946612_">
	
		<linearGradient id="DB_00000018226387491551240690000008585863019509453999_" gradientUnits="userSpaceOnUse" x1="618.2741" y1="1105.5603" x2="688.843" y2="983.3313" gradientTransform="matrix(1 0 0 -1 0 1172)">
		<stop  offset="0" style="stop-color:#FF00A0"/>
		<stop  offset="1" style="stop-color:#9600FF"/>
	</linearGradient>
	<path id="DB" style="fill:url(#DB_00000018226387491551240690000008585863019509453999_);" d="M725.1,125.3
		c13.7-10.4,6.4-33.3-8.5-38.5c-3.3-1.3-6.7-1.9-10.4-1.9h-35.8v86.7c2.1,0,40.6,0,40.6,0c6.9,0,13.5-2.5,18.3-7.1
		C740.1,154.2,738.9,133,725.1,125.3z M687.8,102.4h17.9c4.6,0,8.5,3.3,8.3,8.1c0.2,4.6-3.7,8.5-8.3,8.3h-17.9V102.4z M710.1,154.4
		h-22.3v-18.8h22.3c4.6-0.2,8.5,5,8.3,9.6C718.5,149.6,714.7,154.6,710.1,154.4z M636.5,88.2c-5.4-2.1-11.3-3.3-17.9-3.3h-32.3v86.7
		h32.3c6.9,0,13.1-1.1,18.5-3.3c16.5-6.4,25.8-22.7,25.6-40.2C662.9,110.7,653.1,94.5,636.5,88.2z M644.2,128.4
		c0.2,13.7-11.2,26.2-25,26h-15.8v-51.9h15.8C633.1,102.2,644.4,114.9,644.2,128.4z"/>
	<g id="Surreal">
		<path id="l" class="st1" d="M561.3,84.9v86.7h17.3V84.9H561.3z"/>
		<path id="a" class="st1" d="M519.9,105.7c-18.6,0-33.6,14.8-33.6,33s15,33,33.6,33c5.9,0,11.5-1.5,16.3-4.2v4.2h17.3v-33
			C553.5,120.5,538.6,105.7,519.9,105.7z M519.8,155.8c-9.8,0-17.5-7.7-17.5-17.3c0-9.4,7.9-17.3,17.5-17.3
			c9.8,0,17.5,7.7,17.5,17.3C537.2,148.1,529.3,155.8,519.8,155.8z"/>
		<path id="e" class="st1" d="M444.7,105.7c20-0.6,37.5,18.6,33.2,39h-49.2c4.6,12.7,21.3,15.4,29.2,4.6h18.8
			c-7.9,23.4-39.2,29.8-56.1,12.7C399,140.7,415.3,105.5,444.7,105.7z M460.7,132.8c-5.8-15-26.1-15-31.9,0H460.7z"/>
		<path id="r" class="st1" d="M406.9,105.7c-14.8,0-27.9,9.6-32.3,23.6c-1,3.3-1.5,6.7-1.5,10.2v32.1h17.3c0,0,0-30.8,0-32.1
			c0.4-11.5,8.5-17.3,16.5-17.3V105.7z"/>
		<path id="r_00000093863150956384291220000002169458381189141395_" class="st1" d="M369.2,105.7c-14.8,0-27.9,9.6-32.3,23.6
			c-1,3.3-1.5,6.7-1.5,10.2v32.1h17.3c0,0,0-30.8,0-32.1c0.4-11.5,8.5-17.3,16.5-17.3V105.7z"/>
		<path id="u" class="st1" d="M310.2,105.7v32.1c-1,22.9-32.3,22.9-33.1,0v-32.1h-17.3v32.1c0,3.5,0.6,6.9,1.5,10.2
			c4.4,14,17.5,23.6,32.3,23.6s28-9.6,32.4-23.6c1-3.3,1.5-6.7,1.5-10.2v-32.1C327.5,105.7,310.2,105.7,310.2,105.7z"/>
		<path id="S" class="st1" d="M228.3,121c-7.3-1.1-16-2.5-21.7-7.1c-3.7-2.9-2.1-7.5,1.7-10c7.5-4.8,20-2.1,22.5,6.7h19.6
			c0-15.7-16.9-25.9-32.7-25.7c-8.8,0-17.1,2.1-23.4,7.3c-7.7,6.1-11.5,17.9-6.7,26.5c7.9,12.9,26.9,12.7,39.8,17.8
			c3.5,1.7,5.6,3.7,5.6,7.3c0,7.9-7.1,11.1-15.2,11.1c-7.7,0.2-13.4-5.6-14.2-12.7h-19.2C185,170.1,222,180,243,163.5
			c5.9-5,9.2-12.1,9.2-19.8C252.3,131.4,240.4,123,228.3,121z"/>
	</g>
	
		<linearGradient id="Icon_00000044145591835902775290000017299893831643574947_" gradientUnits="userSpaceOnUse" x1="32.8684" y1="-2054.2766" x2="102.9316" y2="-1932.9235" gradientTransform="matrix(1 0 0 1 0 2122)">
		<stop  offset="0" style="stop-color:#FF00A0"/>
		<stop  offset="1" style="stop-color:#9600FF"/>
	</linearGradient>
	<path id="Icon" style="fill:url(#Icon_00000044145591835902775290000017299893831643574947_);" d="M67.9,90.9l37.7,20.9v-8.4
		L67.9,82.5c-5.6,3.1-32.7,18.1-37.7,20.8c4.6,2.6,53.4,29.5,83,45.8v8.3c-4,2.2-45.3,25-45.3,25c-11.3-6.2-34-18.8-45.3-25v-25
		l45.3,25l7.5-4.2L15,119.9v41.7l52.8,29.2c5.2-2.9,48.9-27,52.8-29.2v-16.7l-75.4-41.7L67.9,90.9z M15.1,95v16.7l75.4,41.7
		l-22.6,12.5L30.2,145v8.4l37.7,20.8c5.6-3.1,32.7-18.1,37.7-20.8c-4.6-2.6-53.3-29.5-83-45.9v-8.3c4-2.2,45.3-25,45.3-25
		c11.3,6.2,34,18.8,45.3,25v25l-45.3-25l-7.5,4.2l60.3,33.3V95L67.9,65.9C62.7,68.8,18.9,92.9,15.1,95z M67.9,49.2L0,86.7v83.4
		l67.9,37.5l67.9-37.5V86.7L67.9,49.2z M128.2,165.9l-60.3,33.3L7.5,165.9v-75l60.3-33.3l60.3,33.3L128.2,165.9z"/>
</g>
<g id="Built_on">
	<path class="st3" d="M19.4,17.8c1.1,1.5,1.6,3.1,1.6,5c0,1.6-0.4,3-1.1,4.3c-0.8,1.3-1.9,2.3-3.3,3s-3.1,1.1-5,1.1H0V0h11
		c2,0,3.7,0.4,5.1,1.1s2.5,1.7,3.2,2.9c0.7,1.2,1.1,2.5,1.1,4c0,1.8-0.4,3.3-1.3,4.5s-2.1,2.1-3.6,2.6C17,15.5,18.4,16.4,19.4,17.8z
		 M4.7,13.1h5.9c1.6,0,2.8-0.4,3.6-1.1c0.9-0.8,1.3-1.9,1.3-3.3s-0.4-2.5-1.3-3.3c-0.9-0.8-2.1-1.2-3.6-1.2H4.7V13.1z M14.9,25.8
		c0.9-0.8,1.4-2,1.4-3.5s-0.5-2.7-1.5-3.6s-2.3-1.3-3.9-1.3H4.7V27h6.4C12.8,27,14,26.6,14.9,25.8z"/>
	<path class="st3" d="M47,7.5v23.4h-4.7v-2.8c-0.7,1-1.7,1.7-2.9,2.3c-1.2,0.6-2.5,0.8-3.9,0.8c-1.8,0-3.4-0.4-4.9-1.1
		c-1.4-0.8-2.6-1.9-3.4-3.4S26,23.4,26,21.3V7.5h4.7v13c0,2.1,0.5,3.7,1.5,4.8c1,1.1,2.4,1.7,4.2,1.7s3.2-0.6,4.2-1.7
		s1.6-2.7,1.6-4.8v-13H47z"/>
	<path class="st3" d="M53.9,4.1c-0.5-0.5-0.7-1-0.7-1.7s0.2-1.2,0.7-1.7S55,0,55.6,0c0.7,0,1.2,0.2,1.7,0.7s0.7,1,0.7,1.7
		s-0.2,1.2-0.7,1.7s-1,0.7-1.7,0.7C55,4.8,54.4,4.6,53.9,4.1z"/>
	<rect x="53.3" y="7.5" class="st3" width="4.7" height="23.7"/>
	<path class="st3" d="M69,0v31.2h-4.7V0H69z"/>
	<path class="st3" d="M80.8,24.8c0,0.9,0.2,1.5,0.6,1.9s1.1,0.6,2.1,0.6h2.9v4h-3.7c-2.1,0-3.8-0.5-4.9-1.5s-1.7-2.6-1.7-4.9V2.6
		h4.8v22.2H80.8z"/>
	<path class="st3" d="M105.6,29.7c-1.8-1-3.1-2.4-4.1-4.2c-1-1.8-1.5-3.9-1.5-6.2s0.5-4.4,1.5-6.2s2.4-3.2,4.2-4.2
		c1.8-1,3.8-1.5,6-1.5s4.2,0.5,6,1.5s3.2,2.4,4.2,4.2s1.5,3.9,1.5,6.2s-0.5,4.4-1.6,6.2c-1.1,1.8-2.5,3.2-4.3,4.2s-3.8,1.5-6,1.5
		C109.3,31.2,107.4,30.7,105.6,29.7z M114.9,26.2c1.1-0.6,1.9-1.5,2.6-2.6c0.7-1.2,1-2.6,1-4.2s-0.3-3.1-1-4.2s-1.5-2-2.5-2.6
		c-1.1-0.6-2.2-0.9-3.4-0.9c-1.2,0-2.4,0.3-3.4,0.9c-1,0.6-1.9,1.5-2.5,2.6c-0.6,1.2-0.9,2.6-0.9,4.2c0,2.5,0.6,4.4,1.9,5.7
		c1.3,1.3,2.9,2,4.8,2C112.7,27.1,113.9,26.8,114.9,26.2z"/>
	<path class="st3" d="M144.5,8.6c1.4,0.8,2.5,1.9,3.4,3.4c0.8,1.5,1.2,3.3,1.2,5.4v13.7h-4.7v-13c0-2.1-0.5-3.7-1.5-4.8
		s-2.4-1.7-4.2-1.7s-3.2,0.6-4.2,1.7s-1.6,2.7-1.6,4.8v13h-4.7V7.9h4.7v2.7c0.8-1,1.8-1.7,3-2.2s2.5-0.8,3.9-0.8
		C141.5,7.5,143.1,7.9,144.5,8.6z"/>
	<rect x="73.3" y="7.5" class="st3" width="13.1" height="3.9"/>
</g>
</svg>
